<svg xmlns="http://www.w3.org/2000/svg" xmlns:xlink="http://www.w3.org/1999/xlink" width="300" zoomAndPan="magnify" viewBox="0 0 224.87999 74.999997" height="100" preserveAspectRatio="xMidYMid meet" version="1.0"><defs><g/><clipPath id="id1"><path d="M 145 20 L 158 20 L 158 28 L 145 28 Z M 145 20 " clip-rule="nonzero"/></clipPath><clipPath id="id2"><path d="M 150.261719 8.386719 L 170.683594 17.800781 L 157.820312 45.710938 L 137.394531 36.296875 Z M 150.261719 8.386719 " clip-rule="nonzero"/></clipPath><clipPath id="id3"><path d="M 150.261719 8.386719 L 170.683594 17.800781 L 157.820312 45.710938 L 137.394531 36.296875 Z M 150.261719 8.386719 " clip-rule="nonzero"/></clipPath><clipPath id="id4"><path d="M 154 19 L 156 19 L 156 21 L 154 21 Z M 154 19 " clip-rule="nonzero"/></clipPath><clipPath id="id5"><path d="M 150.261719 8.386719 L 170.683594 17.800781 L 157.820312 45.710938 L 137.394531 36.296875 Z M 150.261719 8.386719 " clip-rule="nonzero"/></clipPath><clipPath id="id6"><path d="M 150.261719 8.386719 L 170.683594 17.800781 L 157.820312 45.710938 L 137.394531 36.296875 Z M 150.261719 8.386719 " clip-rule="nonzero"/></clipPath><clipPath id="id7"><path d="M 155 19 L 157 19 L 157 21 L 155 21 Z M 155 19 " clip-rule="nonzero"/></clipPath><clipPath id="id8"><path d="M 150.261719 8.386719 L 170.683594 17.800781 L 157.820312 45.710938 L 137.394531 36.296875 Z M 150.261719 8.386719 " clip-rule="nonzero"/></clipPath><clipPath id="id9"><path d="M 150.261719 8.386719 L 170.683594 17.800781 L 157.820312 45.710938 L 137.394531 36.296875 Z M 150.261719 8.386719 " clip-rule="nonzero"/></clipPath><clipPath id="id10"><path d="M 156 20 L 158 20 L 158 22 L 156 22 Z M 156 20 " clip-rule="nonzero"/></clipPath><clipPath id="id11"><path d="M 150.261719 8.386719 L 170.683594 17.800781 L 157.820312 45.710938 L 137.394531 36.296875 Z M 150.261719 8.386719 " clip-rule="nonzero"/></clipPath><clipPath id="id12"><path d="M 150.261719 8.386719 L 170.683594 17.800781 L 157.820312 45.710938 L 137.394531 36.296875 Z M 150.261719 8.386719 " clip-rule="nonzero"/></clipPath><clipPath id="id13"><path d="M 141 20 L 161 20 L 161 36 L 141 36 Z M 141 20 " clip-rule="nonzero"/></clipPath><clipPath id="id14"><path d="M 150.261719 8.386719 L 170.683594 17.800781 L 157.820312 45.710938 L 137.394531 36.296875 Z M 150.261719 8.386719 " clip-rule="nonzero"/></clipPath><clipPath id="id15"><path d="M 150.261719 8.386719 L 170.683594 17.800781 L 157.820312 45.710938 L 137.394531 36.296875 Z M 150.261719 8.386719 " clip-rule="nonzero"/></clipPath><clipPath id="id16"><path d="M 147 18 L 156 18 L 156 22 L 147 22 Z M 147 18 " clip-rule="nonzero"/></clipPath><clipPath id="id17"><path d="M 150.261719 8.386719 L 170.683594 17.800781 L 157.820312 45.710938 L 137.394531 36.296875 Z M 150.261719 8.386719 " clip-rule="nonzero"/></clipPath><clipPath id="id18"><path d="M 150.261719 8.386719 L 170.683594 17.800781 L 157.820312 45.710938 L 137.394531 36.296875 Z M 150.261719 8.386719 " clip-rule="nonzero"/></clipPath><clipPath id="id19"><path d="M 146 20 L 148 20 L 148 23 L 146 23 Z M 146 20 " clip-rule="nonzero"/></clipPath><clipPath id="id20"><path d="M 150.261719 8.386719 L 170.683594 17.800781 L 157.820312 45.710938 L 137.394531 36.296875 Z M 150.261719 8.386719 " clip-rule="nonzero"/></clipPath><clipPath id="id21"><path d="M 150.261719 8.386719 L 170.683594 17.800781 L 157.820312 45.710938 L 137.394531 36.296875 Z M 150.261719 8.386719 " clip-rule="nonzero"/></clipPath><clipPath id="id22"><path d="M 144 21 L 147 21 L 147 23 L 144 23 Z M 144 21 " clip-rule="nonzero"/></clipPath><clipPath id="id23"><path d="M 150.261719 8.386719 L 170.683594 17.800781 L 157.820312 45.710938 L 137.394531 36.296875 Z M 150.261719 8.386719 " clip-rule="nonzero"/></clipPath><clipPath id="id24"><path d="M 150.261719 8.386719 L 170.683594 17.800781 L 157.820312 45.710938 L 137.394531 36.296875 Z M 150.261719 8.386719 " clip-rule="nonzero"/></clipPath><clipPath id="id25"><path d="M 140 22 L 164 22 L 164 43 L 140 43 Z M 140 22 " clip-rule="nonzero"/></clipPath><clipPath id="id26"><path d="M 150.261719 8.386719 L 170.683594 17.800781 L 157.820312 45.710938 L 137.394531 36.296875 Z M 150.261719 8.386719 " clip-rule="nonzero"/></clipPath><clipPath id="id27"><path d="M 150.261719 8.386719 L 170.683594 17.800781 L 157.820312 45.710938 L 137.394531 36.296875 Z M 150.261719 8.386719 " clip-rule="nonzero"/></clipPath><clipPath id="id28"><path d="M 147.398438 16.789062 L 166.980469 25.8125 L 157.765625 45.800781 L 138.183594 36.777344 Z M 147.398438 16.789062 " clip-rule="nonzero"/></clipPath><clipPath id="id29"><path d="M 147.398438 16.789062 L 166.980469 25.8125 L 157.8125 45.703125 L 138.230469 36.675781 Z M 147.398438 16.789062 " clip-rule="nonzero"/></clipPath><clipPath id="id30"><path d="M 156 17 L 159 17 L 159 21 L 156 21 Z M 156 17 " clip-rule="nonzero"/></clipPath><clipPath id="id31"><path d="M 150.261719 8.386719 L 170.683594 17.800781 L 157.820312 45.710938 L 137.394531 36.296875 Z M 150.261719 8.386719 " clip-rule="nonzero"/></clipPath><clipPath id="id32"><path d="M 150.261719 8.386719 L 170.683594 17.800781 L 157.820312 45.710938 L 137.394531 36.296875 Z M 150.261719 8.386719 " clip-rule="nonzero"/></clipPath><clipPath id="id33"><path d="M 158 16 L 162 16 L 162 19 L 158 19 Z M 158 16 " clip-rule="nonzero"/></clipPath><clipPath id="id34"><path d="M 150.261719 8.386719 L 170.683594 17.800781 L 157.820312 45.710938 L 137.394531 36.296875 Z M 150.261719 8.386719 " clip-rule="nonzero"/></clipPath><clipPath id="id35"><path d="M 150.261719 8.386719 L 170.683594 17.800781 L 157.820312 45.710938 L 137.394531 36.296875 Z M 150.261719 8.386719 " clip-rule="nonzero"/></clipPath><clipPath id="id36"><path d="M 161 15 L 163 15 L 163 19 L 161 19 Z M 161 15 " clip-rule="nonzero"/></clipPath><clipPath id="id37"><path d="M 150.261719 8.386719 L 170.683594 17.800781 L 157.820312 45.710938 L 137.394531 36.296875 Z M 150.261719 8.386719 " clip-rule="nonzero"/></clipPath><clipPath id="id38"><path d="M 150.261719 8.386719 L 170.683594 17.800781 L 157.820312 45.710938 L 137.394531 36.296875 Z M 150.261719 8.386719 " clip-rule="nonzero"/></clipPath><clipPath id="id39"><path d="M 162 15 L 165 15 L 165 17 L 162 17 Z M 162 15 " clip-rule="nonzero"/></clipPath><clipPath id="id40"><path d="M 150.261719 8.386719 L 170.683594 17.800781 L 157.820312 45.710938 L 137.394531 36.296875 Z M 150.261719 8.386719 " clip-rule="nonzero"/></clipPath><clipPath id="id41"><path d="M 150.261719 8.386719 L 170.683594 17.800781 L 157.820312 45.710938 L 137.394531 36.296875 Z M 150.261719 8.386719 " clip-rule="nonzero"/></clipPath><clipPath id="id42"><path d="M 164 14 L 167 14 L 167 17 L 164 17 Z M 164 14 " clip-rule="nonzero"/></clipPath><clipPath id="id43"><path d="M 150.261719 8.386719 L 170.683594 17.800781 L 157.820312 45.710938 L 137.394531 36.296875 Z M 150.261719 8.386719 " clip-rule="nonzero"/></clipPath><clipPath id="id44"><path d="M 150.261719 8.386719 L 170.683594 17.800781 L 157.820312 45.710938 L 137.394531 36.296875 Z M 150.261719 8.386719 " clip-rule="nonzero"/></clipPath><clipPath id="id45"><path d="M 165 16 L 167 16 L 167 18 L 165 18 Z M 165 16 " clip-rule="nonzero"/></clipPath><clipPath id="id46"><path d="M 150.261719 8.386719 L 170.683594 17.800781 L 157.820312 45.710938 L 137.394531 36.296875 Z M 150.261719 8.386719 " clip-rule="nonzero"/></clipPath><clipPath id="id47"><path d="M 150.261719 8.386719 L 170.683594 17.800781 L 157.820312 45.710938 L 137.394531 36.296875 Z M 150.261719 8.386719 " clip-rule="nonzero"/></clipPath><clipPath id="id48"><path d="M 165 17 L 168 17 L 168 20 L 165 20 Z M 165 17 " clip-rule="nonzero"/></clipPath><clipPath id="id49"><path d="M 150.261719 8.386719 L 170.683594 17.800781 L 157.820312 45.710938 L 137.394531 36.296875 Z M 150.261719 8.386719 " clip-rule="nonzero"/></clipPath><clipPath id="id50"><path d="M 150.261719 8.386719 L 170.683594 17.800781 L 157.820312 45.710938 L 137.394531 36.296875 Z M 150.261719 8.386719 " clip-rule="nonzero"/></clipPath><clipPath id="id51"><path d="M 165 18 L 168 18 L 168 21 L 165 21 Z M 165 18 " clip-rule="nonzero"/></clipPath><clipPath id="id52"><path d="M 150.261719 8.386719 L 170.683594 17.800781 L 157.820312 45.710938 L 137.394531 36.296875 Z M 150.261719 8.386719 " clip-rule="nonzero"/></clipPath><clipPath id="id53"><path d="M 150.261719 8.386719 L 170.683594 17.800781 L 157.820312 45.710938 L 137.394531 36.296875 Z M 150.261719 8.386719 " clip-rule="nonzero"/></clipPath><clipPath id="id54"><path d="M 166 18 L 169 18 L 169 20 L 166 20 Z M 166 18 " clip-rule="nonzero"/></clipPath><clipPath id="id55"><path d="M 150.261719 8.386719 L 170.683594 17.800781 L 157.820312 45.710938 L 137.394531 36.296875 Z M 150.261719 8.386719 " clip-rule="nonzero"/></clipPath><clipPath id="id56"><path d="M 150.261719 8.386719 L 170.683594 17.800781 L 157.820312 45.710938 L 137.394531 36.296875 Z M 150.261719 8.386719 " clip-rule="nonzero"/></clipPath><clipPath id="id57"><path d="M 165 20 L 168 20 L 168 22 L 165 22 Z M 165 20 " clip-rule="nonzero"/></clipPath><clipPath id="id58"><path d="M 150.261719 8.386719 L 170.683594 17.800781 L 157.820312 45.710938 L 137.394531 36.296875 Z M 150.261719 8.386719 " clip-rule="nonzero"/></clipPath><clipPath id="id59"><path d="M 150.261719 8.386719 L 170.683594 17.800781 L 157.820312 45.710938 L 137.394531 36.296875 Z M 150.261719 8.386719 " clip-rule="nonzero"/></clipPath><clipPath id="id60"><path d="M 167 19 L 169 19 L 169 21 L 167 21 Z M 167 19 " clip-rule="nonzero"/></clipPath><clipPath id="id61"><path d="M 150.261719 8.386719 L 170.683594 17.800781 L 157.820312 45.710938 L 137.394531 36.296875 Z M 150.261719 8.386719 " clip-rule="nonzero"/></clipPath><clipPath id="id62"><path d="M 150.261719 8.386719 L 170.683594 17.800781 L 157.820312 45.710938 L 137.394531 36.296875 Z M 150.261719 8.386719 " clip-rule="nonzero"/></clipPath><clipPath id="id63"><path d="M 163 20 L 166 20 L 166 22 L 163 22 Z M 163 20 " clip-rule="nonzero"/></clipPath><clipPath id="id64"><path d="M 150.261719 8.386719 L 170.683594 17.800781 L 157.820312 45.710938 L 137.394531 36.296875 Z M 150.261719 8.386719 " clip-rule="nonzero"/></clipPath><clipPath id="id65"><path d="M 150.261719 8.386719 L 170.683594 17.800781 L 157.820312 45.710938 L 137.394531 36.296875 Z M 150.261719 8.386719 " clip-rule="nonzero"/></clipPath><clipPath id="id66"><path d="M 166 21 L 168 21 L 168 23 L 166 23 Z M 166 21 " clip-rule="nonzero"/></clipPath><clipPath id="id67"><path d="M 150.261719 8.386719 L 170.683594 17.800781 L 157.820312 45.710938 L 137.394531 36.296875 Z M 150.261719 8.386719 " clip-rule="nonzero"/></clipPath><clipPath id="id68"><path d="M 150.261719 8.386719 L 170.683594 17.800781 L 157.820312 45.710938 L 137.394531 36.296875 Z M 150.261719 8.386719 " clip-rule="nonzero"/></clipPath></defs><g clip-path="url(#id1)"><g clip-path="url(#id2)"><g clip-path="url(#id3)"><path fill="#9f9f9f" d="M 156.765625 22.300781 L 157.183594 21.398438 L 155.40625 20.582031 L 154.992188 21.480469 L 152.332031 20.253906 L 151.914062 21.152344 L 151.027344 20.746094 L 150.613281 21.644531 L 148.839844 20.828125 L 148.421875 21.726562 L 147.535156 21.320312 L 147.121094 22.21875 L 146.234375 21.808594 L 145.402344 23.609375 L 146.292969 24.019531 L 145.875 24.917969 L 152.085938 27.78125 L 152.503906 26.882812 L 153.390625 27.292969 L 153.804688 26.390625 L 154.691406 26.800781 L 155.9375 24.097656 L 156.824219 24.507812 L 157.652344 22.707031 L 156.765625 22.300781 " fill-opacity="1" fill-rule="nonzero"/></g></g></g><g clip-path="url(#id4)"><g clip-path="url(#id5)"><g clip-path="url(#id6)"><path fill="#4d4c4c" d="M 155.40625 20.582031 L 155.820312 19.679688 L 154.933594 19.273438 L 154.519531 20.171875 L 155.40625 20.582031 " fill-opacity="1" fill-rule="nonzero"/></g></g></g><g clip-path="url(#id7)"><g clip-path="url(#id8)"><g clip-path="url(#id9)"><path fill="#4d4c4c" d="M 156.292969 20.988281 L 156.710938 20.089844 L 155.820312 19.679688 L 155.40625 20.582031 L 156.292969 20.988281 " fill-opacity="1" fill-rule="nonzero"/></g></g></g><g clip-path="url(#id10)"><g clip-path="url(#id11)"><g clip-path="url(#id12)"><path fill="#4d4c4c" d="M 157.183594 21.398438 L 157.597656 20.5 L 156.710938 20.089844 L 156.292969 20.988281 L 157.183594 21.398438 " fill-opacity="1" fill-rule="nonzero"/></g></g></g><g clip-path="url(#id13)"><g clip-path="url(#id14)"><g clip-path="url(#id15)"><path fill="#4d4c4c" d="M 158.65625 27.535156 L 160.316406 23.933594 L 159.429688 23.527344 L 159.84375 22.625 L 158.957031 22.214844 L 159.371094 21.316406 L 157.597656 20.5 L 156.765625 22.300781 L 157.652344 22.707031 L 156.824219 24.507812 L 155.9375 24.097656 L 154.691406 26.800781 L 153.804688 26.390625 L 153.390625 27.292969 L 152.503906 26.882812 L 152.085938 27.78125 L 145.875 24.917969 L 146.292969 24.019531 L 145.402344 23.609375 L 145.820312 22.710938 L 144.933594 22.300781 L 144.101562 24.101562 L 143.214844 23.691406 L 141.140625 28.195312 L 142.914062 29.011719 L 142.5 29.914062 L 144.273438 30.730469 L 143.859375 31.628906 L 145.632812 32.449219 L 145.21875 33.347656 L 149.65625 35.394531 L 150.070312 34.492188 L 152.730469 35.71875 L 153.148438 34.820312 L 154.035156 35.230469 L 154.449219 34.328125 L 155.335938 34.738281 L 156.164062 32.9375 L 157.054688 33.347656 L 159.542969 27.945312 L 158.65625 27.535156 " fill-opacity="1" fill-rule="nonzero"/></g></g></g><g clip-path="url(#id16)"><g clip-path="url(#id17)"><g clip-path="url(#id18)"><path fill="#1e1d1d" d="M 148.839844 20.828125 L 150.613281 21.644531 L 151.027344 20.746094 L 151.914062 21.152344 L 152.332031 20.253906 L 154.992188 21.480469 L 155.40625 20.582031 L 151.859375 18.945312 L 151.441406 19.84375 L 150.554688 19.4375 L 150.140625 20.335938 L 148.367188 19.519531 L 147.535156 21.320312 L 148.421875 21.726562 L 148.839844 20.828125 " fill-opacity="1" fill-rule="nonzero"/></g></g></g><g clip-path="url(#id19)"><g clip-path="url(#id20)"><g clip-path="url(#id21)"><path fill="#1e1d1d" d="M 147.535156 21.320312 L 146.648438 20.910156 L 146.234375 21.808594 L 147.121094 22.21875 L 147.535156 21.320312 " fill-opacity="1" fill-rule="nonzero"/></g></g></g><g clip-path="url(#id22)"><g clip-path="url(#id23)"><g clip-path="url(#id24)"><path fill="#1e1d1d" d="M 146.234375 21.808594 L 145.347656 21.402344 L 144.933594 22.300781 L 145.820312 22.710938 L 146.234375 21.808594 " fill-opacity="1" fill-rule="nonzero"/></g></g></g><g clip-path="url(#id25)"><g clip-path="url(#id26)"><g clip-path="url(#id27)"><g clip-path="url(#id28)"><g clip-path="url(#id29)"><path fill="#1e1d1d" d="M 162.734375 32.691406 L 163.980469 29.988281 L 163.09375 29.582031 L 163.507812 28.679688 L 162.621094 28.269531 L 163.449219 26.46875 L 161.675781 25.652344 L 162.089844 24.753906 L 161.203125 24.34375 L 161.617188 23.441406 L 159.84375 22.625 L 159.429688 23.527344 L 160.316406 23.933594 L 158.65625 27.535156 L 159.542969 27.945312 L 157.054688 33.347656 L 156.164062 32.9375 L 155.335938 34.738281 L 154.449219 34.328125 L 154.035156 35.230469 L 153.148438 34.820312 L 152.730469 35.71875 L 150.070312 34.492188 L 149.65625 35.394531 L 145.21875 33.347656 L 145.632812 32.449219 L 143.859375 31.628906 L 144.273438 30.730469 L 142.5 29.914062 L 142.914062 29.011719 L 142.027344 28.605469 L 140.78125 31.304688 L 141.667969 31.714844 L 141.253906 32.613281 L 142.140625 33.023438 L 141.3125 34.824219 L 143.085938 35.640625 L 142.671875 36.539062 L 143.558594 36.949219 L 143.144531 37.851562 L 145.804688 39.078125 L 145.390625 39.976562 L 149.828125 42.023438 L 150.242188 41.121094 L 152.902344 42.347656 L 153.316406 41.449219 L 154.207031 41.855469 L 154.621094 40.957031 L 156.394531 41.773438 L 157.226562 39.976562 L 158.113281 40.382812 L 158.527344 39.484375 L 159.414062 39.890625 L 160.660156 37.191406 L 161.546875 37.601562 L 163.621094 33.097656 L 162.734375 32.691406 " fill-opacity="1" fill-rule="nonzero"/></g></g></g></g></g><g clip-path="url(#id30)"><g clip-path="url(#id31)"><g clip-path="url(#id32)"><path fill="#1e1d1d" d="M 156.710938 20.089844 L 157.597656 20.5 L 158.839844 17.796875 L 157.953125 17.386719 L 156.710938 20.089844 " fill-opacity="1" fill-rule="nonzero"/></g></g></g><g clip-path="url(#id33)"><g clip-path="url(#id34)"><g clip-path="url(#id35)"><path fill="#1e1d1d" d="M 158.839844 17.796875 L 160.617188 18.617188 L 161.03125 17.714844 L 159.257812 16.898438 L 158.839844 17.796875 " fill-opacity="1" fill-rule="nonzero"/></g></g></g><g clip-path="url(#id36)"><g clip-path="url(#id37)"><g clip-path="url(#id38)"><path fill="#1e1d1d" d="M 161.03125 17.714844 L 161.917969 18.125 L 162.746094 16.324219 L 161.859375 15.914062 L 161.03125 17.714844 " fill-opacity="1" fill-rule="nonzero"/></g></g></g><g clip-path="url(#id39)"><g clip-path="url(#id40)"><g clip-path="url(#id41)"><path fill="#1e1d1d" d="M 162.746094 16.324219 L 163.636719 16.734375 L 164.050781 15.832031 L 163.164062 15.421875 L 162.746094 16.324219 " fill-opacity="1" fill-rule="nonzero"/></g></g></g><g clip-path="url(#id42)"><g clip-path="url(#id43)"><g clip-path="url(#id44)"><path fill="#1e1d1d" d="M 165.351562 15.339844 L 164.464844 14.933594 L 164.050781 15.832031 L 165.824219 16.648438 L 166.238281 15.75 L 165.351562 15.339844 " fill-opacity="1" fill-rule="nonzero"/></g></g></g><g clip-path="url(#id45)"><g clip-path="url(#id46)"><g clip-path="url(#id47)"><path fill="#1e1d1d" d="M 165.824219 16.648438 L 166.710938 17.058594 L 166.296875 17.960938 L 165.410156 17.550781 L 165.824219 16.648438 " fill-opacity="1" fill-rule="nonzero"/></g></g></g><g clip-path="url(#id48)"><g clip-path="url(#id49)"><g clip-path="url(#id50)"><path fill="#1e1d1d" d="M 166.296875 17.960938 L 167.183594 18.367188 L 166.769531 19.269531 L 165.882812 18.859375 L 166.296875 17.960938 " fill-opacity="1" fill-rule="nonzero"/></g></g></g><g clip-path="url(#id51)"><g clip-path="url(#id52)"><g clip-path="url(#id53)"><path fill="#c91a1a" d="M 167.242188 20.578125 L 165.46875 19.761719 L 165.882812 18.859375 L 167.65625 19.679688 L 167.242188 20.578125 " fill-opacity="1" fill-rule="nonzero"/></g></g></g><g clip-path="url(#id54)"><g clip-path="url(#id55)"><g clip-path="url(#id56)"><path fill="#c91a1a" d="M 167.65625 19.679688 L 166.769531 19.269531 L 167.183594 18.367188 L 168.070312 18.777344 L 167.65625 19.679688 " fill-opacity="1" fill-rule="nonzero"/></g></g></g><g clip-path="url(#id57)"><g clip-path="url(#id58)"><g clip-path="url(#id59)"><path fill="#e8681e" d="M 166.828125 21.476562 L 165.9375 21.070312 L 166.355469 20.167969 L 167.242188 20.578125 L 166.828125 21.476562 " fill-opacity="1" fill-rule="nonzero"/></g></g></g><g clip-path="url(#id60)"><g clip-path="url(#id61)"><g clip-path="url(#id62)"><path fill="#e8681e" d="M 167.65625 19.679688 L 168.542969 20.085938 L 168.128906 20.988281 L 167.242188 20.578125 L 167.65625 19.679688 " fill-opacity="1" fill-rule="nonzero"/></g></g></g><g clip-path="url(#id63)"><g clip-path="url(#id64)"><g clip-path="url(#id65)"><path fill="#e8681e" d="M 164.636719 21.5625 L 163.75 21.152344 L 164.164062 20.25 L 165.050781 20.660156 L 164.636719 21.5625 " fill-opacity="1" fill-rule="nonzero"/></g></g></g><g clip-path="url(#id66)"><g clip-path="url(#id67)"><g clip-path="url(#id68)"><path fill="#e8681e" d="M 167.300781 22.789062 L 166.410156 22.378906 L 166.828125 21.476562 L 167.714844 21.886719 L 167.300781 22.789062 " fill-opacity="1" fill-rule="nonzero"/></g></g></g><g fill="#ffffff" fill-opacity="1"><g transform="translate(58.325438, 39.854635)"><g><path d="M 20.652344 0 L 6.191406 0 L 6.191406 -2.042969 L 4.117188 -2.042969 L 4.117188 -4.089844 L 2.074219 -4.089844 L 2.074219 -17.125 L 4.117188 -17.125 L 4.117188 -19.171875 L 6.191406 -19.171875 L 6.191406 -21.214844 L 18.609375 -21.214844 L 18.609375 -19.171875 L 8.296875 -19.171875 L 8.296875 -17.125 L 6.191406 -17.125 L 6.191406 -4.089844 L 8.296875 -4.089844 L 8.296875 -2.042969 L 16.535156 -2.042969 L 16.535156 -10.042969 L 10.933594 -10.042969 L 10.933594 -12.089844 L 20.652344 -12.089844 Z M 20.652344 0 "/></g></g></g><g fill="#ffffff" fill-opacity="1"><g transform="translate(80.161177, 39.854635)"><g><path d="M 18.578125 0 L 2.074219 0 L 2.074219 -21.214844 L 18.578125 -21.214844 L 18.578125 -19.171875 L 6.191406 -19.171875 L 6.191406 -12.652344 L 18.578125 -12.652344 L 18.578125 -10.609375 L 6.191406 -10.609375 L 6.191406 -2.042969 L 18.578125 -2.042969 Z M 18.578125 0 "/></g></g></g><g fill="#ffffff" fill-opacity="1"><g transform="translate(99.92295, 39.854635)"><g><path d="M 18.578125 0 L 2.074219 0 L 2.074219 -21.214844 L 18.578125 -21.214844 L 18.578125 -19.171875 L 6.191406 -19.171875 L 6.191406 -12.652344 L 18.578125 -12.652344 L 18.578125 -10.609375 L 6.191406 -10.609375 L 6.191406 -2.042969 L 18.578125 -2.042969 Z M 18.578125 0 "/></g></g></g><g fill="#ffffff" fill-opacity="1"><g transform="translate(119.684724, 39.854635)"><g><path d="M 12.414062 -15.082031 L 12.414062 -13.039062 L 10.3125 -13.039062 L 10.3125 -8.179688 L 12.414062 -8.179688 L 12.414062 -6.132812 L 14.429688 -6.132812 L 14.429688 -4.089844 L 16.535156 -4.089844 L 16.535156 -2.042969 L 18.550781 -2.042969 L 18.550781 0 L 14.429688 0 L 14.429688 -2.042969 L 12.355469 -2.042969 L 12.355469 -4.089844 L 10.3125 -4.089844 L 10.3125 -6.132812 L 8.238281 -6.132812 L 8.238281 -8.179688 L 6.191406 -8.179688 L 6.191406 0 L 2.074219 0 L 2.074219 -21.214844 L 6.191406 -21.214844 L 6.191406 -13.039062 L 8.238281 -13.039062 L 8.238281 -15.082031 L 10.3125 -15.082031 L 10.3125 -17.125 L 12.355469 -17.125 L 12.355469 -19.171875 L 14.429688 -19.171875 L 14.429688 -21.214844 L 18.550781 -21.214844 L 18.550781 -19.171875 L 16.535156 -19.171875 L 16.535156 -17.125 L 14.429688 -17.125 L 14.429688 -15.082031 Z M 12.414062 -15.082031 "/></g></g></g><path stroke-linecap="butt" transform="matrix(0.388246, 0, 0, 0.388246, 57.615676, 10.347941)" fill="none" stroke-linejoin="miter" d="M 55.029013 76.002147 L 17.782168 76.002147 L 17.782168 70.730038 L 12.429569 70.730038 L 12.429569 65.467991 L 7.177583 65.467991 L 7.177583 31.893512 L 12.429569 31.893512 L 12.429569 26.621404 L 17.782168 26.621404 L 17.782168 21.349295 L 49.746843 21.349295 L 49.746843 26.621404 L 23.195135 26.621404 L 23.195135 31.893512 L 17.782168 31.893512 L 17.782168 65.467991 L 23.195135 65.467991 L 23.195135 70.730038 L 44.424428 70.730038 L 44.424428 50.114483 L 29.986496 50.114483 L 29.986496 44.862497 L 55.029013 44.862497 Z M 105.918947 76.002147 L 63.420117 76.002147 L 63.420117 21.349295 L 105.918947 21.349295 L 105.918947 26.621404 L 74.024702 26.621404 L 74.024702 43.413674 L 105.918947 43.413674 L 105.918947 48.685782 L 74.024702 48.685782 L 74.024702 70.730038 L 105.918947 70.730038 Z M 156.818943 76.002147 L 114.320113 76.002147 L 114.320113 21.349295 L 156.818943 21.349295 L 156.818943 26.621404 L 124.924698 26.621404 L 124.924698 43.413674 L 156.818943 43.413674 L 156.818943 48.685782 L 124.924698 48.685782 L 124.924698 70.730038 L 156.818943 70.730038 Z M 191.842245 37.15556 L 191.842245 42.427669 L 186.419217 42.427669 L 186.419217 54.943896 L 191.842245 54.943896 L 191.842245 60.195882 L 197.043925 60.195882 L 197.043925 65.467991 L 202.466953 65.467991 L 202.466953 70.730038 L 207.64851 70.730038 L 207.64851 76.002147 L 197.043925 76.002147 L 197.043925 70.730038 L 191.691326 70.730038 L 191.691326 65.467991 L 186.419217 65.467991 L 186.419217 60.195882 L 181.096802 60.195882 L 181.096802 54.943896 L 175.824694 54.943896 L 175.824694 76.002147 L 165.220109 76.002147 L 165.220109 21.349295 L 175.824694 21.349295 L 175.824694 42.427669 L 181.096802 42.427669 L 181.096802 37.15556 L 186.419217 37.15556 L 186.419217 31.893512 L 191.691326 31.893512 L 191.691326 26.621404 L 197.043925 26.621404 L 197.043925 21.349295 L 207.64851 21.349295 L 207.64851 26.621404 L 202.466953 26.621404 L 202.466953 31.893512 L 197.043925 31.893512 L 197.043925 37.15556 Z M 191.842245 37.15556 " stroke="#ffffff" stroke-width="1.669572" stroke-opacity="1" stroke-miterlimit="4"/><g fill="#ffffff" fill-opacity="1"><g transform="translate(57.911693, 61.458287)"><g><path d="M 11.03125 0 L 1.230469 0 L 1.230469 -12.597656 L 11.03125 -12.597656 L 11.03125 -11.386719 L 3.675781 -11.386719 L 3.675781 -7.515625 L 11.03125 -7.515625 L 11.03125 -6.300781 L 3.675781 -6.300781 L 3.675781 -1.214844 L 11.03125 -1.214844 Z M 11.03125 0 "/></g></g></g><g fill="#ffffff" fill-opacity="1"><g transform="translate(69.647372, 61.458287)"><g><path d="M 9.800781 -4.488281 L 11.03125 -4.488281 L 11.03125 -3.273438 L 12.265625 -3.273438 L 12.265625 -2.058594 L 13.480469 -2.058594 L 13.480469 0 L 11.03125 0 L 11.03125 -2.058594 L 9.800781 -2.058594 L 9.800781 -3.273438 L 8.570312 -3.273438 L 8.570312 -4.488281 L 6.140625 -4.488281 L 6.140625 -3.273438 L 4.910156 -3.273438 L 4.910156 -2.058594 L 3.675781 -2.058594 L 3.675781 0 L 1.230469 0 L 1.230469 -2.058594 L 2.445312 -2.058594 L 2.445312 -3.273438 L 3.675781 -3.273438 L 3.675781 -4.488281 L 4.910156 -4.488281 L 4.910156 -5.703125 L 6.125 -5.703125 L 6.125 -6.914062 L 4.910156 -6.914062 L 4.910156 -8.128906 L 3.675781 -8.128906 L 3.675781 -9.34375 L 2.445312 -9.34375 L 2.445312 -10.558594 L 1.230469 -10.558594 L 1.230469 -12.597656 L 3.675781 -12.597656 L 3.675781 -10.558594 L 4.910156 -10.558594 L 4.910156 -9.34375 L 6.140625 -9.34375 L 6.140625 -8.128906 L 8.570312 -8.128906 L 8.570312 -9.34375 L 9.800781 -9.34375 L 9.800781 -10.558594 L 11.03125 -10.558594 L 11.03125 -12.597656 L 13.480469 -12.597656 L 13.480469 -10.558594 L 12.265625 -10.558594 L 12.265625 -9.34375 L 11.03125 -9.34375 L 11.03125 -8.128906 L 9.800781 -8.128906 L 9.800781 -6.914062 L 8.585938 -6.914062 L 8.585938 -5.703125 L 9.800781 -5.703125 Z M 9.800781 -4.488281 "/></g></g></g><g fill="#ffffff" fill-opacity="1"><g transform="translate(83.828736, 61.458287)"><g><path d="M 3.675781 -5.085938 L 3.675781 0 L 1.230469 0 L 1.230469 -12.597656 L 11.03125 -12.597656 L 11.03125 -11.386719 L 12.265625 -11.386719 L 12.265625 -6.300781 L 11.03125 -6.300781 L 11.03125 -5.085938 Z M 3.675781 -6.300781 L 9.820312 -6.300781 L 9.820312 -11.386719 L 3.675781 -11.386719 Z M 3.675781 -6.300781 "/></g></g></g><g fill="#ffffff" fill-opacity="1"><g transform="translate(96.796057, 61.458287)"><g><path d="M 11.03125 0 L 1.230469 0 L 1.230469 -12.597656 L 3.675781 -12.597656 L 3.675781 -1.214844 L 11.03125 -1.214844 Z M 11.03125 0 "/></g></g></g><g fill="#ffffff" fill-opacity="1"><g transform="translate(108.531735, 61.458287)"><g><path d="M 3.675781 -1.214844 L 2.445312 -1.214844 L 2.445312 -2.429688 L 1.230469 -2.429688 L 1.230469 -10.171875 L 2.445312 -10.171875 L 2.445312 -11.386719 L 3.675781 -11.386719 L 3.675781 -12.597656 L 9.820312 -12.597656 L 9.820312 -11.386719 L 11.050781 -11.386719 L 11.050781 -10.171875 L 12.265625 -10.171875 L 12.265625 -2.429688 L 11.050781 -2.429688 L 11.050781 -1.214844 L 9.820312 -1.214844 L 9.820312 0 L 3.675781 0 Z M 4.925781 -1.214844 L 8.570312 -1.214844 L 8.570312 -2.429688 L 9.820312 -2.429688 L 9.820312 -10.171875 L 8.570312 -10.171875 L 8.570312 -11.386719 L 4.925781 -11.386719 L 4.925781 -10.171875 L 3.675781 -10.171875 L 3.675781 -2.429688 L 4.925781 -2.429688 Z M 4.925781 -1.214844 "/></g></g></g><g fill="#ffffff" fill-opacity="1"><g transform="translate(121.499054, 61.458287)"><g><path d="M 3.675781 -3.675781 L 3.675781 -1.214844 L 9.820312 -1.214844 L 9.820312 -5.789062 L 2.464844 -5.789062 L 2.464844 -7.003906 L 1.230469 -7.003906 L 1.230469 -11.386719 L 2.464844 -11.386719 L 2.464844 -12.597656 L 11.03125 -12.597656 L 11.03125 -11.386719 L 12.265625 -11.386719 L 12.265625 -8.921875 L 9.820312 -8.921875 L 9.820312 -11.386719 L 3.675781 -11.386719 L 3.675781 -7.003906 L 11.03125 -7.003906 L 11.03125 -5.789062 L 12.265625 -5.789062 L 12.265625 -1.214844 L 11.03125 -1.214844 L 11.03125 0 L 2.464844 0 L 2.464844 -1.214844 L 1.230469 -1.214844 L 1.230469 -3.675781 Z M 3.675781 -3.675781 "/></g></g></g><g fill="#ffffff" fill-opacity="1"><g transform="translate(134.466377, 61.458287)"><g><path d="M 1.230469 -12.597656 L 3.675781 -12.597656 L 3.675781 0 L 1.230469 0 Z M 1.230469 -12.597656 "/></g></g></g><g fill="#ffffff" fill-opacity="1"><g transform="translate(138.847416, 61.458287)"><g><path d="M 3.675781 -1.214844 L 2.445312 -1.214844 L 2.445312 -2.429688 L 1.230469 -2.429688 L 1.230469 -10.171875 L 2.445312 -10.171875 L 2.445312 -11.386719 L 3.675781 -11.386719 L 3.675781 -12.597656 L 9.820312 -12.597656 L 9.820312 -11.386719 L 11.050781 -11.386719 L 11.050781 -10.171875 L 12.265625 -10.171875 L 12.265625 -2.429688 L 11.050781 -2.429688 L 11.050781 -1.214844 L 9.820312 -1.214844 L 9.820312 0 L 3.675781 0 Z M 4.925781 -1.214844 L 8.570312 -1.214844 L 8.570312 -2.429688 L 9.820312 -2.429688 L 9.820312 -10.171875 L 8.570312 -10.171875 L 8.570312 -11.386719 L 4.925781 -11.386719 L 4.925781 -10.171875 L 3.675781 -10.171875 L 3.675781 -2.429688 L 4.925781 -2.429688 Z M 4.925781 -1.214844 "/></g></g></g><g fill="#ffffff" fill-opacity="1"><g transform="translate(151.814738, 61.458287)"><g><path d="M 4.890625 -10.101562 L 6.089844 -10.101562 L 6.089844 -7.585938 L 7.285156 -7.585938 L 7.285156 -5.066406 L 8.480469 -5.066406 L 8.480469 -2.535156 L 9.679688 -2.535156 L 9.679688 -12.597656 L 12.125 -12.597656 L 12.125 0 L 8.464844 0 L 8.464844 -2.515625 L 7.265625 -2.515625 L 7.265625 -5.050781 L 6.070312 -5.050781 L 6.070312 -7.566406 L 4.875 -7.566406 L 4.875 -10.082031 L 3.675781 -10.082031 L 3.675781 0 L 1.230469 0 L 1.230469 -12.597656 L 4.890625 -12.597656 Z M 4.890625 -10.101562 "/></g></g></g><path stroke-linecap="butt" transform="matrix(0.230563, 0, 0, 0.230563, 53.714729, 43.935512)" fill="none" stroke-linejoin="miter" d="M 66.058278 75.994554 L 23.550206 75.994554 L 23.550206 21.355842 L 66.058278 21.355842 L 66.058278 26.624877 L 34.156046 26.624877 L 34.156046 43.414634 L 66.058278 43.414634 L 66.058278 48.683669 L 34.156046 48.683669 L 34.156046 70.725519 L 66.058278 70.725519 Z M 111.599009 56.544867 L 116.952756 56.544867 L 116.952756 61.79696 L 122.306503 61.79696 L 122.306503 67.082938 L 127.575538 67.082938 L 127.575538 75.994554 L 116.952756 75.994554 L 116.952756 67.082938 L 111.599009 67.082938 L 111.599009 61.79696 L 106.279147 61.79696 L 106.279147 56.544867 L 95.741076 56.544867 L 95.741076 61.79696 L 90.404271 61.79696 L 90.404271 67.082938 L 85.050525 67.082938 L 85.050525 75.994554 L 74.444685 75.994554 L 74.444685 67.082938 L 79.71372 67.082938 L 79.71372 61.79696 L 85.050525 61.79696 L 85.050525 56.544867 L 90.404271 56.544867 L 90.404271 51.275831 L 95.656365 51.275831 L 95.656365 46.006796 L 90.404271 46.006796 L 90.404271 40.754702 L 85.050525 40.754702 L 85.050525 35.468725 L 79.71372 35.468725 L 79.71372 30.199689 L 74.444685 30.199689 L 74.444685 21.355842 L 85.050525 21.355842 L 85.050525 30.199689 L 90.404271 30.199689 L 90.404271 35.468725 L 95.741076 35.468725 L 95.741076 40.754702 L 106.279147 40.754702 L 106.279147 35.468725 L 111.599009 35.468725 L 111.599009 30.199689 L 116.952756 30.199689 L 116.952756 21.355842 L 127.575538 21.355842 L 127.575538 30.199689 L 122.306503 30.199689 L 122.306503 35.468725 L 116.952756 35.468725 L 116.952756 40.754702 L 111.599009 40.754702 L 111.599009 46.006796 L 106.346916 46.006796 L 106.346916 51.275831 L 111.599009 51.275831 Z M 146.567785 53.935762 L 146.567785 75.994554 L 135.961945 75.994554 L 135.961945 21.355842 L 178.453074 21.355842 L 178.453074 26.624877 L 183.806821 26.624877 L 183.806821 48.683669 L 178.453074 48.683669 L 178.453074 53.935762 Z M 146.567785 48.683669 L 173.200981 48.683669 L 173.200981 26.624877 L 146.567785 26.624877 Z M 234.701299 75.994554 L 192.193228 75.994554 L 192.193228 21.355842 L 202.799068 21.355842 L 202.799068 70.725519 L 234.701299 70.725519 Z M 253.710489 70.725519 L 248.356742 70.725519 L 248.356742 65.473425 L 243.104649 65.473425 L 243.104649 31.893913 L 248.356742 31.893913 L 248.356742 26.624877 L 253.710489 26.624877 L 253.710489 21.355842 L 280.343684 21.355842 L 280.343684 26.624877 L 285.680489 26.624877 L 285.680489 31.893913 L 290.949524 31.893913 L 290.949524 65.473425 L 285.680489 65.473425 L 285.680489 70.725519 L 280.343684 70.725519 L 280.343684 75.994554 L 253.710489 75.994554 Z M 259.132004 70.725519 L 274.922169 70.725519 L 274.922169 65.473425 L 280.343684 65.473425 L 280.343684 31.893913 L 274.922169 31.893913 L 274.922169 26.624877 L 259.132004 26.624877 L 259.132004 31.893913 L 253.710489 31.893913 L 253.710489 65.473425 L 259.132004 65.473425 Z M 309.941771 60.05191 L 309.941771 70.725519 L 336.591909 70.725519 L 336.591909 50.88616 L 304.672736 50.88616 L 304.672736 45.634067 L 299.335931 45.634067 L 299.335931 26.624877 L 304.672736 26.624877 L 304.672736 21.355842 L 341.844003 21.355842 L 341.844003 26.624877 L 347.197749 26.624877 L 347.197749 37.298486 L 336.591909 37.298486 L 336.591909 26.624877 L 309.941771 26.624877 L 309.941771 45.634067 L 341.844003 45.634067 L 341.844003 50.88616 L 347.197749 50.88616 L 347.197749 70.725519 L 341.844003 70.725519 L 341.844003 75.994554 L 304.672736 75.994554 L 304.672736 70.725519 L 299.335931 70.725519 L 299.335931 60.05191 Z M 355.584156 21.355842 L 366.189996 21.355842 L 366.189996 75.994554 L 355.584156 75.994554 Z M 385.182244 70.725519 L 379.845439 70.725519 L 379.845439 65.473425 L 374.593346 65.473425 L 374.593346 31.893913 L 379.845439 31.893913 L 379.845439 26.624877 L 385.182244 26.624877 L 385.182244 21.355842 L 411.832381 21.355842 L 411.832381 26.624877 L 417.169186 26.624877 L 417.169186 31.893913 L 422.438222 31.893913 L 422.438222 65.473425 L 417.169186 65.473425 L 417.169186 70.725519 L 411.832381 70.725519 L 411.832381 75.994554 L 385.182244 75.994554 Z M 390.603759 70.725519 L 406.410866 70.725519 L 406.410866 65.473425 L 411.832381 65.473425 L 411.832381 31.893913 L 406.410866 31.893913 L 406.410866 26.624877 L 390.603759 26.624877 L 390.603759 31.893913 L 385.182244 31.893913 L 385.182244 65.473425 L 390.603759 65.473425 Z M 446.699504 32.198873 L 451.883828 32.198873 L 451.883828 43.109673 L 457.085095 43.109673 L 457.085095 54.020474 L 462.269419 54.020474 L 462.269419 64.999043 L 467.453744 64.999043 L 467.453744 21.355842 L 478.059584 21.355842 L 478.059584 75.994554 L 462.184708 75.994554 L 462.184708 65.083754 L 457.000384 65.083754 L 457.000384 54.088243 L 451.81606 54.088243 L 451.81606 43.194385 L 446.631735 43.194385 L 446.631735 32.266642 L 441.430469 32.266642 L 441.430469 75.994554 L 430.824629 75.994554 L 430.824629 21.355842 L 446.699504 21.355842 Z M 446.699504 32.198873 " stroke="#ffffff" stroke-width="1.669572" stroke-opacity="1" stroke-miterlimit="4"/></svg>