<svg width="320" height="307" viewBox="0 0 320 307" fill="none" xmlns="http://www.w3.org/2000/svg">
<path d="M73.517 300.768L73.4785 301.594L74.282 301.787C77.0429 302.451 87.9545 304.247 126.329 304.247H204.839C242.98 304.247 253.996 302.48 256.889 301.772L257.689 301.576L257.65 300.754L249.998 136.465C249.99 136.287 250.097 136.107 250.291 136.03C250.461 135.962 250.659 136.015 250.771 136.152L250.775 136.157L262.369 150.13L262.924 150.798L263.663 150.343L315.692 118.282L316.537 117.761L316.022 116.912L268.079 37.8829L268.078 37.8806C267.143 36.3491 265.806 35.1413 264.216 34.354L264.21 34.3512L203.264 4.65083C201.866 3.96897 200.298 3.81779 198.764 4.22142C193.331 5.59085 179.919 6.56771 166.179 6.71526C159.329 6.78882 152.436 6.65589 146.467 6.26807C140.474 5.87872 135.489 5.23658 132.412 4.31791L132.409 4.31713C130.901 3.87145 129.248 4.00965 127.801 4.72369C127.8 4.72413 127.799 4.72457 127.799 4.72502L66.9578 34.3511L66.9554 34.3523C65.3502 35.1391 64.0093 36.3482 63.087 37.8851C63.0866 37.8858 63.0862 37.8865 63.0857 37.8872L15.145 116.912L14.63 117.761L15.4754 118.282L67.5039 150.343L68.2434 150.798L68.7981 150.13L80.3919 136.157L80.3964 136.152C80.5085 136.015 80.7065 135.962 80.8763 136.03C81.0704 136.107 81.1778 136.287 81.1695 136.465L73.517 300.768Z" fill="#E9EAE9" stroke="#E9EAE9" stroke-width="2"/>
<path d="M261.691 149.368C261.691 149.368 269.429 71.8642 265.56 66.4536C261.691 61.0431 250.557 81.4766 250.557 81.4766C250.557 81.4766 248.543 89.7508 248.615 91.2761C248.687 92.8015 250.269 135.395 250.269 135.395L263.259 151.253" fill="#DCDCDC"/>
<path d="M257.634 39.2711C257.634 39.2711 247.58 70.6266 249.004 99.0466C250.428 127.467 250.744 124.056 250.744 124.056C250.744 124.056 244.286 90.9739 245.048 62.8417C245.796 34.7096 251.981 32.0474 257.634 39.2711Z" fill="#DCDCDC"/>
<path d="M234.403 54.0927C234.403 54.0927 241.106 211.302 253.88 268.343C253.88 268.343 247.205 177.673 244.976 126.344C242.746 75.0156 234.403 -7.49583 234.403 54.0927Z" fill="#DCDCDC"/>
<path d="M96.4279 106.947C96.4279 106.947 89.7248 227.922 76.9514 271.811C76.9514 271.811 83.6258 202.035 85.8554 162.535C88.0706 123.035 96.4279 59.5465 96.4279 106.947Z" fill="#DCDCDC"/>
<path d="M74.2471 38.7963C74.2471 38.7963 80.8208 54.2654 82.2592 63.331C83.6833 72.3966 83.1654 96.1111 83.1654 96.1111C83.1654 96.1111 87.4088 73.3176 86.704 62.7554C85.9848 52.1933 79.9002 26.2484 74.2471 38.7963Z" fill="#DCDCDC"/>
<path d="M71.8305 47.7324C71.8305 47.7324 71.1689 68.9431 72.8806 73.8356C74.5923 78.7282 80.5187 93.8375 80.5187 93.8375C80.5187 93.8375 72.3052 79.6779 70.3058 81.4766C68.3063 83.2897 81.4393 130.33 81.4393 130.33C81.4393 130.33 83.6545 84.7431 83.9566 80.0233C84.2731 75.289 71.8305 47.7324 71.8305 47.7324Z" fill="#DCDCDC"/>
<path d="M205.259 306.002H126.749C79.2662 306.002 73.2535 303.268 72.7212 302.952C72.2609 302.678 71.9876 302.174 72.0164 301.642L79.5107 140.548L69.8587 152.175C69.3984 152.722 68.6073 152.851 68.0031 152.477L13.6875 119.006C13.0115 118.589 12.7957 117.711 13.2128 117.035L61.9041 36.7825C63.0117 34.9406 64.6228 33.4728 66.5647 32.5375L127.396 2.89436C129.281 1.97341 131.395 1.78634 133.366 2.37633C145.506 6.00257 188.113 4.93772 198.729 2.26121C200.685 1.77195 202.742 1.97341 204.511 2.8368L265.473 32.5375C267.4 33.4728 269.011 34.9406 270.133 36.7825L318.81 117.035C319.227 117.711 319.012 118.589 318.335 119.006L264.02 152.477C263.416 152.851 262.61 152.722 262.164 152.175L252.512 140.548L260.007 301.642C260.035 302.174 259.762 302.678 259.302 302.952C258.755 303.254 252.742 306.002 205.259 306.002ZM74.9221 300.692C77.5544 301.326 88.3571 303.124 126.735 303.124H205.245C243.393 303.124 254.296 301.354 257.058 300.678L249.405 136.389C249.376 135.77 249.75 135.209 250.326 134.979C250.901 134.749 251.563 134.921 251.951 135.396L263.545 149.369L315.574 117.308L267.63 38.279C266.796 36.912 265.602 35.8327 264.178 35.1276L203.231 5.42698C202.052 4.85138 200.728 4.72187 199.419 5.06723C188.3 7.87325 145.305 8.96688 132.532 5.15357C131.266 4.77943 129.871 4.89455 128.648 5.49893L67.8018 35.1276C66.3633 35.8327 65.1694 36.912 64.3495 38.279L16.4062 117.308L68.4347 149.369L80.0285 135.396C80.4169 134.921 81.0786 134.749 81.654 134.979C82.2293 135.209 82.6033 135.77 82.5746 136.389L74.9221 300.692Z" fill="#A9A9A9"/>
<path d="M205.649 293.439C205.548 293.439 205.462 293.353 205.462 293.252C205.462 293.151 205.548 293.065 205.649 293.065H207.087C207.188 293.065 207.274 293.151 207.274 293.252C207.274 293.353 207.188 293.439 207.087 293.439H205.649ZM204.21 293.439H202.772C202.671 293.439 202.585 293.353 202.585 293.252C202.585 293.151 202.671 293.065 202.772 293.065H204.21C204.311 293.065 204.397 293.151 204.397 293.252C204.397 293.353 204.311 293.439 204.21 293.439ZM201.319 293.439H199.88C199.78 293.439 199.693 293.353 199.693 293.252C199.693 293.151 199.78 293.065 199.88 293.065H201.319C201.42 293.065 201.506 293.151 201.506 293.252C201.506 293.353 201.42 293.439 201.319 293.439ZM198.442 293.439H197.004C196.903 293.439 196.817 293.353 196.817 293.252C196.817 293.151 196.903 293.065 197.004 293.065H198.442C198.543 293.065 198.629 293.151 198.629 293.252C198.629 293.353 198.543 293.439 198.442 293.439ZM195.565 293.439H194.127C194.026 293.439 193.94 293.353 193.94 293.252C193.94 293.151 194.026 293.065 194.127 293.065H195.565C195.666 293.065 195.752 293.151 195.752 293.252C195.752 293.353 195.666 293.439 195.565 293.439ZM192.674 293.439H191.235C191.135 293.439 191.048 293.353 191.048 293.252C191.048 293.151 191.135 293.065 191.235 293.065H192.674C192.775 293.065 192.861 293.151 192.861 293.252C192.861 293.353 192.775 293.439 192.674 293.439ZM189.797 293.439H188.359C188.258 293.439 188.172 293.353 188.172 293.252C188.172 293.151 188.258 293.065 188.359 293.065H189.797C189.898 293.065 189.984 293.151 189.984 293.252C189.984 293.353 189.898 293.439 189.797 293.439ZM186.92 293.439H185.482C185.381 293.439 185.295 293.353 185.295 293.252C185.295 293.151 185.381 293.065 185.482 293.065H186.92C187.021 293.065 187.107 293.151 187.107 293.252C187.107 293.353 187.021 293.439 186.92 293.439ZM184.029 293.439H182.59C182.49 293.439 182.403 293.353 182.403 293.252C182.403 293.151 182.49 293.065 182.59 293.065H184.029C184.13 293.065 184.216 293.151 184.216 293.252C184.216 293.353 184.13 293.439 184.029 293.439ZM181.152 293.439H179.714C179.613 293.439 179.527 293.353 179.527 293.252C179.527 293.151 179.613 293.065 179.714 293.065H181.152C181.253 293.065 181.339 293.151 181.339 293.252C181.339 293.353 181.253 293.439 181.152 293.439ZM178.275 293.439H176.837C176.736 293.439 176.65 293.353 176.65 293.252C176.65 293.151 176.736 293.065 176.837 293.065H178.275C178.376 293.065 178.462 293.151 178.462 293.252C178.462 293.353 178.376 293.439 178.275 293.439ZM175.398 293.439H173.96C173.859 293.439 173.773 293.353 173.773 293.252C173.773 293.151 173.859 293.065 173.96 293.065H175.398C175.499 293.065 175.585 293.151 175.585 293.252C175.585 293.353 175.499 293.439 175.398 293.439ZM172.521 293.439H171.083C170.982 293.439 170.896 293.353 170.896 293.252C170.896 293.151 170.982 293.065 171.083 293.065H172.521C172.622 293.065 172.708 293.151 172.708 293.252C172.708 293.353 172.622 293.439 172.521 293.439ZM169.63 293.439H168.192C168.091 293.439 168.005 293.353 168.005 293.252C168.005 293.151 168.091 293.065 168.192 293.065H169.63C169.731 293.065 169.817 293.151 169.817 293.252C169.817 293.353 169.731 293.439 169.63 293.439ZM166.753 293.439H165.315C165.214 293.439 165.128 293.353 165.128 293.252C165.128 293.151 165.214 293.065 165.315 293.065H166.753C166.854 293.065 166.94 293.151 166.94 293.252C166.94 293.353 166.854 293.439 166.753 293.439ZM163.862 293.439H162.423C162.323 293.439 162.236 293.353 162.236 293.252C162.236 293.151 162.323 293.065 162.423 293.065H163.862C163.963 293.065 164.049 293.151 164.049 293.252C164.049 293.353 163.963 293.439 163.862 293.439ZM160.985 293.439H159.547C159.446 293.439 159.36 293.353 159.36 293.252C159.36 293.151 159.446 293.065 159.547 293.065H160.985C161.086 293.065 161.172 293.151 161.172 293.252C161.172 293.353 161.086 293.439 160.985 293.439ZM158.122 293.439H156.684C156.583 293.439 156.497 293.353 156.497 293.252C156.497 293.151 156.583 293.065 156.684 293.065H158.122C158.223 293.065 158.309 293.151 158.309 293.252C158.309 293.353 158.223 293.439 158.122 293.439ZM155.231 293.439H153.793C153.692 293.439 153.606 293.353 153.606 293.252C153.606 293.151 153.692 293.065 153.793 293.065H155.231C155.332 293.065 155.418 293.151 155.418 293.252C155.418 293.353 155.332 293.439 155.231 293.439ZM152.354 293.439H150.916C150.815 293.439 150.729 293.353 150.729 293.252C150.729 293.151 150.815 293.065 150.916 293.065H152.354C152.455 293.065 152.541 293.151 152.541 293.252C152.541 293.353 152.455 293.439 152.354 293.439ZM149.477 293.439H148.039C147.938 293.439 147.852 293.353 147.852 293.252C147.852 293.151 147.938 293.065 148.039 293.065H149.477C149.578 293.065 149.664 293.151 149.664 293.252C149.664 293.353 149.578 293.439 149.477 293.439ZM146.601 293.439H145.162C145.061 293.439 144.975 293.353 144.975 293.252C144.975 293.151 145.061 293.065 145.162 293.065H146.601C146.701 293.065 146.788 293.151 146.788 293.252C146.788 293.353 146.701 293.439 146.601 293.439ZM143.724 293.439H142.285C142.185 293.439 142.098 293.353 142.098 293.252C142.098 293.151 142.185 293.065 142.285 293.065H143.724C143.824 293.065 143.911 293.151 143.911 293.252C143.911 293.353 143.81 293.439 143.724 293.439ZM140.832 293.439H139.394C139.293 293.439 139.207 293.353 139.207 293.252C139.207 293.151 139.293 293.065 139.394 293.065H140.832C140.933 293.065 141.019 293.151 141.019 293.252C141.019 293.353 140.933 293.439 140.832 293.439ZM137.956 293.439H136.517C136.416 293.439 136.33 293.353 136.33 293.252C136.33 293.151 136.416 293.065 136.517 293.065H137.956C138.056 293.065 138.143 293.151 138.143 293.252C138.143 293.353 138.056 293.439 137.956 293.439ZM135.079 293.439H133.64C133.539 293.439 133.453 293.353 133.453 293.252C133.453 293.151 133.539 293.065 133.64 293.065H135.079C135.179 293.065 135.266 293.151 135.266 293.252C135.266 293.353 135.179 293.439 135.079 293.439ZM132.187 293.439H130.749C130.648 293.439 130.562 293.353 130.562 293.252C130.562 293.151 130.648 293.065 130.749 293.065H132.187C132.288 293.065 132.374 293.151 132.374 293.252C132.374 293.353 132.288 293.439 132.187 293.439ZM129.31 293.439H127.872C127.771 293.439 127.685 293.353 127.685 293.252C127.685 293.151 127.771 293.065 127.872 293.065H129.31C129.411 293.065 129.497 293.151 129.497 293.252C129.497 293.353 129.411 293.439 129.31 293.439ZM126.419 293.439H124.981C124.88 293.439 124.794 293.353 124.794 293.252C124.794 293.151 124.88 293.065 124.981 293.065H126.419C126.52 293.065 126.606 293.151 126.606 293.252C126.606 293.353 126.52 293.439 126.419 293.439ZM208.526 293.425C208.425 293.425 208.339 293.339 208.339 293.238C208.339 293.137 208.425 293.051 208.526 293.051H209.964C210.065 293.051 210.151 293.137 210.151 293.223C210.151 293.324 210.065 293.411 209.978 293.411L208.526 293.425ZM123.542 293.425H122.104C122.003 293.425 121.931 293.339 121.931 293.238C121.931 293.137 122.018 293.051 122.118 293.051H123.557C123.657 293.051 123.729 293.137 123.729 293.238C123.729 293.353 123.643 293.425 123.542 293.425ZM120.665 293.425L119.227 293.411C119.126 293.411 119.054 293.324 119.054 293.223C119.054 293.123 119.141 293.051 119.241 293.051L120.68 293.065C120.781 293.065 120.867 293.151 120.852 293.252C120.852 293.339 120.766 293.425 120.665 293.425ZM211.402 293.411C211.302 293.411 211.215 293.324 211.215 293.238C211.215 293.137 211.302 293.051 211.388 293.051L212.826 293.036C212.927 293.036 212.999 293.123 213.013 293.209C213.013 293.31 212.942 293.396 212.841 293.396L211.402 293.411ZM214.279 293.396C214.179 293.396 214.107 293.31 214.092 293.223C214.092 293.123 214.164 293.036 214.265 293.036L215.703 293.022C215.804 293.022 215.876 293.108 215.89 293.195C215.89 293.295 215.818 293.382 215.718 293.382L214.279 293.396ZM117.789 293.396L116.35 293.382C116.249 293.382 116.177 293.295 116.177 293.195C116.177 293.094 116.264 293.022 116.364 293.022L117.803 293.036C117.904 293.036 117.976 293.123 117.976 293.223C117.976 293.324 117.889 293.396 117.789 293.396ZM217.156 293.367C217.055 293.367 216.984 293.295 216.969 293.195C216.969 293.094 217.041 293.008 217.142 293.008C217.631 293.008 218.106 292.993 218.58 292.993C218.681 292.993 218.767 293.065 218.767 293.166C218.767 293.267 218.695 293.353 218.595 293.353C218.12 293.353 217.645 293.367 217.156 293.367ZM114.926 293.367C114.926 293.367 114.912 293.367 114.926 293.367L113.488 293.353C113.387 293.353 113.315 293.267 113.315 293.166C113.315 293.065 113.401 292.993 113.502 292.993L114.94 293.008C115.041 293.008 115.113 293.094 115.113 293.195C115.099 293.295 115.012 293.367 114.926 293.367ZM220.033 293.339C219.932 293.339 219.86 293.267 219.846 293.166C219.846 293.065 219.918 292.979 220.019 292.979C220.508 292.979 220.982 292.964 221.457 292.95C221.558 292.95 221.63 293.022 221.644 293.123C221.659 293.223 221.572 293.31 221.472 293.31C220.997 293.324 220.522 293.324 220.033 293.339ZM112.049 293.339L110.611 293.324C110.51 293.324 110.438 293.238 110.438 293.137C110.438 293.036 110.524 292.964 110.625 292.964L112.064 292.979C112.164 292.979 112.236 293.065 112.236 293.166C112.222 293.252 112.135 293.339 112.049 293.339ZM109.172 293.281C108.683 293.281 108.209 293.267 107.734 293.252C107.633 293.252 107.561 293.166 107.561 293.065C107.561 292.964 107.648 292.892 107.748 292.892C108.223 292.907 108.698 292.907 109.187 292.921C109.287 292.921 109.359 293.008 109.359 293.108C109.345 293.209 109.273 293.281 109.172 293.281ZM222.91 293.281C222.809 293.281 222.737 293.209 222.723 293.108C222.709 293.008 222.795 292.921 222.896 292.921C223.385 292.907 223.859 292.907 224.334 292.892C224.42 292.892 224.521 292.964 224.521 293.065C224.521 293.166 224.449 293.252 224.348 293.252C223.874 293.267 223.399 293.281 222.91 293.281ZM106.295 293.223L104.857 293.195C104.756 293.195 104.684 293.108 104.684 293.008C104.684 292.907 104.771 292.835 104.871 292.835L106.31 292.864C106.41 292.864 106.482 292.95 106.482 293.051C106.468 293.151 106.396 293.223 106.295 293.223ZM225.787 293.223C225.686 293.223 225.614 293.151 225.6 293.051C225.6 292.95 225.672 292.864 225.772 292.864L227.211 292.835C227.312 292.835 227.384 292.907 227.398 293.008C227.398 293.108 227.326 293.195 227.225 293.195L225.787 293.223ZM228.649 293.152C228.549 293.152 228.477 293.08 228.462 292.979C228.448 292.878 228.534 292.792 228.635 292.792C229.124 292.777 229.599 292.763 230.073 292.749C230.188 292.734 230.26 292.821 230.26 292.921C230.26 293.022 230.188 293.108 230.088 293.108C229.627 293.137 229.153 293.152 228.649 293.152C228.664 293.152 228.664 293.152 228.649 293.152ZM103.418 293.152C102.929 293.137 102.455 293.123 101.98 293.108C101.879 293.108 101.807 293.022 101.807 292.921C101.807 292.821 101.894 292.749 101.994 292.749C102.469 292.763 102.944 292.777 103.433 292.792C103.534 292.792 103.605 292.878 103.605 292.979C103.605 293.08 103.519 293.152 103.418 293.152ZM100.542 293.08C100.053 293.065 99.5635 293.051 99.1032 293.036C99.0025 293.036 98.9306 292.95 98.9306 292.849C98.9306 292.749 99.0169 292.691 99.1175 292.677C99.5922 292.691 100.067 292.705 100.556 292.72C100.657 292.72 100.729 292.806 100.729 292.907C100.714 292.993 100.642 293.08 100.542 293.08ZM231.526 293.08C231.426 293.08 231.354 293.008 231.339 292.907C231.339 292.806 231.411 292.72 231.512 292.72C232.001 292.705 232.476 292.691 232.95 292.677C233.051 292.677 233.123 292.749 233.137 292.849C233.137 292.95 233.065 293.036 232.965 293.036C232.504 293.036 232.03 293.065 231.526 293.08C231.541 293.08 231.526 293.08 231.526 293.08ZM97.6647 292.979C97.1756 292.964 96.6866 292.936 96.2263 292.921C96.1256 292.921 96.0537 292.835 96.0537 292.734C96.0537 292.633 96.14 292.562 96.2407 292.562C96.2407 292.562 96.2407 292.562 96.255 292.562C96.7297 292.576 97.2044 292.605 97.6935 292.619C97.7942 292.619 97.8661 292.705 97.8661 292.806C97.8517 292.907 97.7654 292.979 97.6647 292.979ZM234.403 292.979C234.302 292.979 234.23 292.907 234.216 292.806C234.216 292.705 234.288 292.619 234.389 292.619C234.878 292.605 235.353 292.576 235.827 292.562C235.928 292.562 236 292.633 236.014 292.734C236.014 292.835 235.942 292.921 235.842 292.921C235.381 292.936 234.892 292.95 234.403 292.979ZM94.8022 292.864C94.7878 292.864 94.7878 292.864 94.8022 292.864C94.2988 292.849 93.8241 292.821 93.3638 292.792C93.2631 292.792 93.1912 292.705 93.1912 292.605C93.1912 292.504 93.2919 292.432 93.3782 292.432C93.8528 292.461 94.3275 292.475 94.8166 292.504C94.9173 292.504 94.9892 292.59 94.9892 292.691C94.9748 292.792 94.8885 292.864 94.8022 292.864ZM237.28 292.864C237.179 292.864 237.107 292.792 237.093 292.691C237.093 292.59 237.165 292.504 237.266 292.504C237.755 292.49 238.229 292.461 238.704 292.432C238.819 292.432 238.891 292.504 238.891 292.605C238.891 292.705 238.819 292.792 238.718 292.792C238.258 292.821 237.769 292.835 237.28 292.864ZM91.9253 292.72C91.4219 292.691 90.9472 292.662 90.4869 292.648C90.3862 292.648 90.3143 292.562 90.3143 292.461C90.3143 292.36 90.4006 292.288 90.5013 292.288C90.9616 292.317 91.4506 292.346 91.9397 292.36C92.0404 292.36 92.1123 292.446 92.1123 292.547C92.0979 292.648 92.026 292.72 91.9253 292.72ZM240.143 292.72C240.042 292.72 239.97 292.648 239.956 292.547C239.956 292.446 240.027 292.36 240.128 292.36C240.617 292.331 241.092 292.302 241.567 292.288H241.581C241.682 292.288 241.754 292.36 241.768 292.461C241.768 292.562 241.696 292.648 241.595 292.648C241.121 292.662 240.646 292.691 240.143 292.72C240.157 292.72 240.157 292.72 240.143 292.72ZM89.0628 292.562C89.0484 292.562 89.0484 292.562 89.0628 292.562C88.5594 292.533 88.0847 292.504 87.61 292.475C87.5093 292.475 87.4374 292.389 87.4374 292.288C87.4374 292.187 87.5093 292.115 87.6244 292.115C88.0847 292.144 88.5594 292.173 89.0628 292.202C89.1635 292.202 89.2354 292.288 89.2354 292.389C89.2354 292.49 89.1491 292.562 89.0628 292.562ZM243.019 292.562C242.919 292.562 242.847 292.49 242.832 292.389C242.832 292.288 242.904 292.202 243.005 292.202C243.494 292.173 243.969 292.144 244.443 292.115C244.559 292.115 244.63 292.187 244.63 292.288C244.63 292.389 244.559 292.475 244.458 292.475C243.998 292.49 243.523 292.518 243.019 292.562ZM86.1859 292.374L84.7331 292.259C84.6324 292.245 84.5605 292.159 84.5749 292.072C84.5749 291.972 84.6756 291.914 84.7619 291.9L86.2003 292.015C86.301 292.029 86.3729 292.115 86.3729 292.202C86.3586 292.302 86.2866 292.374 86.1859 292.374ZM245.882 292.36C245.781 292.36 245.709 292.288 245.695 292.187C245.695 292.087 245.767 292 245.868 292C246.357 291.957 246.846 291.928 247.292 291.885H247.306C247.392 291.885 247.479 291.957 247.493 292.043C247.493 292.144 247.421 292.231 247.335 292.245C246.874 292.288 246.4 292.331 245.882 292.36C245.896 292.36 245.896 292.36 245.882 292.36ZM83.3234 292.144H83.3091C82.8056 292.101 82.3309 292.058 81.8706 292.015C81.7699 292 81.698 291.914 81.7124 291.813C81.7268 291.713 81.8131 291.626 81.9138 291.655C82.3597 291.698 82.8344 291.741 83.3378 291.784C83.4385 291.799 83.5104 291.885 83.4961 291.986C83.4961 292.072 83.4241 292.144 83.3234 292.144ZM248.744 292.13C248.658 292.13 248.572 292.058 248.572 291.972C248.557 291.871 248.629 291.784 248.73 291.784C249.233 291.741 249.708 291.698 250.154 291.655C250.255 291.626 250.341 291.713 250.355 291.813C250.37 291.914 250.298 292 250.197 292.015C249.751 292.058 249.262 292.101 248.759 292.144C248.759 292.13 248.759 292.13 248.744 292.13ZM80.4609 291.856H80.4466C79.9431 291.799 79.454 291.741 79.0225 291.684C78.9218 291.669 78.8499 291.583 78.8643 291.482C78.8787 291.382 78.965 291.31 79.0657 291.324C79.5116 291.382 79.9719 291.439 80.4897 291.497C80.5904 291.511 80.6623 291.597 80.6479 291.698C80.6336 291.784 80.5616 291.856 80.4609 291.856ZM251.607 291.842C251.521 291.842 251.434 291.77 251.434 291.684C251.42 291.583 251.492 291.497 251.593 291.482C252.096 291.425 252.571 291.367 253.017 291.31C253.117 291.281 253.204 291.367 253.218 291.468C253.232 291.569 253.16 291.655 253.06 291.669C252.614 291.727 252.139 291.784 251.636 291.842C251.621 291.842 251.607 291.842 251.607 291.842ZM77.6272 291.497C77.6128 291.497 77.6128 291.497 77.5984 291.497C77.0662 291.425 76.5915 291.338 76.1744 291.266C76.0737 291.252 76.0161 291.151 76.0305 291.065C76.0449 290.964 76.1312 290.907 76.2319 290.921C76.6347 290.993 77.1094 291.065 77.6416 291.151C77.7423 291.166 77.8142 291.252 77.7998 291.353C77.7854 291.439 77.7135 291.497 77.6272 291.497ZM254.455 291.482C254.369 291.482 254.297 291.425 254.282 291.324C254.268 291.223 254.34 291.137 254.441 291.123C254.973 291.051 255.448 290.964 255.85 290.892C255.937 290.878 256.037 290.935 256.052 291.036C256.066 291.137 256.009 291.223 255.908 291.238C255.491 291.31 255.03 291.382 254.484 291.468C254.469 291.482 254.455 291.482 254.455 291.482ZM74.7935 290.993C74.7791 290.993 74.7647 290.993 74.7503 290.993C73.6715 290.748 73.3694 290.576 73.3406 290.561C73.2543 290.504 73.2256 290.403 73.2831 290.317C73.3406 290.23 73.4413 290.202 73.5276 290.259C73.542 290.259 73.8297 290.417 74.8366 290.648C74.9373 290.676 74.9949 290.763 74.9661 290.864C74.9517 290.935 74.8798 290.993 74.7935 290.993ZM257.274 290.979C257.188 290.979 257.116 290.921 257.102 290.835C257.073 290.734 257.145 290.648 257.231 290.619C258.152 290.403 258.439 290.259 258.468 290.245C258.583 290.187 258.742 290.274 258.742 290.403C258.742 290.475 258.698 290.533 258.641 290.561C258.555 290.604 258.224 290.763 257.318 290.964C257.303 290.979 257.289 290.979 257.274 290.979Z" fill="#A9A9A9"/>
<path d="M162.927 17.7152C150.326 17.7152 138.128 16.9957 132.274 15.2402C132.087 15.1826 131.972 14.9811 132.029 14.7941C132.087 14.607 132.288 14.4919 132.475 14.5494C144.946 18.2764 188.661 17.1828 199.535 14.4343C199.722 14.3768 199.924 14.5063 199.967 14.6933C200.01 14.8804 199.895 15.0819 199.708 15.125C193.609 16.6791 177.973 17.7152 162.927 17.7152Z" fill="#A9A9A9"/>
<path d="M64.8969 34.8823C67.2559 38.4078 69.3129 42.0916 71.2548 45.8329C73.1823 49.5887 74.9804 53.402 76.577 57.3017C78.1737 61.2013 79.6697 65.1585 80.9211 69.1877C82.2445 73.2024 83.2802 77.2892 84.2439 81.3903C84.2439 81.4191 84.2583 81.4478 84.2583 81.4766L82.4315 136.978V136.993C82.4171 137.568 81.9281 138.014 81.3671 137.986C80.7917 137.971 80.3458 137.482 80.3745 136.921V136.906L82.9062 81.4334L82.935 81.6781C82.0287 77.6057 81.0506 73.5334 79.7992 69.5474C78.6053 65.5327 77.1812 61.5898 75.6421 57.7046C74.1029 53.8049 72.3768 49.9916 70.5068 46.2359C68.6368 42.4945 66.6086 38.7963 64.3359 35.2852L64.3215 35.2708C64.2064 35.0981 64.264 34.8823 64.4222 34.7672C64.566 34.6664 64.7962 34.724 64.8969 34.8823Z" fill="#A9A9A9"/>
<path d="M267.703 35.2997C262.956 42.6385 259.101 50.5673 255.85 58.6976C254.239 62.7699 252.801 66.9142 251.549 71.0872C250.355 75.2603 249.65 79.5772 249.406 83.9086C249.118 88.2399 249.507 92.5857 249.708 96.989L250.398 110.156L251.765 136.489C251.794 137.122 251.319 137.655 250.686 137.683C250.053 137.712 249.521 137.237 249.492 136.604V136.59L248.514 110.242L248.025 97.0753C247.895 92.7008 247.55 88.2687 247.91 83.8223C248.226 79.3902 249.003 74.9869 250.298 70.7275C251.635 66.5113 253.131 62.367 254.829 58.2947C258.223 50.1644 262.208 42.2644 267.113 34.9112C267.228 34.7529 267.444 34.6953 267.617 34.8104C267.775 34.9255 267.832 35.1414 267.717 35.2997H267.703Z" fill="#A9A9A9"/>
<path d="M83.8988 81.8364H83.8844C83.6831 81.822 83.5392 81.6493 83.5392 81.4622C84.3447 65.4032 78.3033 51.7328 78.2457 51.5889C78.1594 51.4018 78.2457 51.2004 78.4327 51.114C78.6197 51.0277 78.8211 51.114 78.9074 51.3011C78.965 51.445 85.0783 65.2593 84.2584 81.5054C84.2441 81.6781 84.0858 81.8364 83.8988 81.8364Z" fill="#A9A9A9"/>
<path d="M248.528 86.9736C248.485 86.9736 248.442 86.9736 248.413 86.9593C248.226 86.9017 248.126 86.6859 248.198 86.4988C248.255 86.3549 253.491 71.5909 261.403 60.8417C261.518 60.6834 261.748 60.6546 261.906 60.7697C262.064 60.8848 262.093 61.1151 261.978 61.2734C254.124 71.9363 248.917 86.5995 248.859 86.7434C248.802 86.8873 248.672 86.9736 248.528 86.9736Z" fill="#A9A9A9"/>
<path d="M169.242 53.3013H162.769C155.735 53.3013 142.314 51.4018 131.511 38.6956C122.521 28.1334 120.263 14.9811 119.73 8.08837C119.716 7.88691 119.86 7.71423 120.061 7.69984C120.248 7.68545 120.435 7.82935 120.45 8.03081C120.996 14.8372 123.212 27.8169 132.072 38.2351C142.688 50.7255 155.864 52.5818 162.783 52.5818H169.256C176.175 52.5818 189.351 50.7111 199.967 38.2351C208.828 27.8312 211.043 14.8516 211.589 8.03081C211.604 7.82935 211.791 7.68545 211.978 7.69984C212.179 7.71423 212.323 7.88691 212.309 8.08837C211.762 14.9811 209.504 28.1334 200.513 38.6956C189.696 51.4018 176.276 53.3013 169.242 53.3013Z" fill="#A9A9A9"/>
<path d="M19.1689 109.925C19.1401 109.925 19.1113 109.925 19.0826 109.911L18.4497 109.58C18.3634 109.537 18.3346 109.422 18.3777 109.335C18.4209 109.249 18.536 109.22 18.6223 109.263L19.2552 109.594C19.3415 109.638 19.3703 109.753 19.3271 109.839C19.284 109.897 19.2264 109.925 19.1689 109.925Z" fill="#A9A9A9"/>
<path d="M73.0241 142.245C72.981 142.245 72.9378 142.231 72.8946 142.187C72.607 141.885 72.2473 141.569 71.859 141.223C71.787 141.166 71.7727 141.051 71.8446 140.964C71.9165 140.878 72.0316 140.878 72.1035 140.95C72.5063 141.295 72.8659 141.626 73.1536 141.943C73.2255 142.015 73.2255 142.13 73.1536 142.202C73.1248 142.231 73.0816 142.245 73.0241 142.245ZM70.8808 140.346C70.8377 140.346 70.8089 140.331 70.7658 140.302C70.4061 140.015 70.0321 139.727 69.6438 139.425C69.5718 139.367 69.5431 139.252 69.615 139.18C69.6725 139.094 69.7876 139.079 69.8739 139.151C70.2767 139.453 70.6507 139.741 71.0103 140.029C71.0822 140.087 71.0966 140.202 71.0391 140.288C70.9959 140.317 70.9384 140.346 70.8808 140.346ZM68.6081 138.619C68.5649 138.619 68.5362 138.604 68.5074 138.59C68.1334 138.317 67.745 138.043 67.3423 137.755C67.2559 137.698 67.2416 137.583 67.2991 137.511C67.3566 137.424 67.4717 137.41 67.5436 137.468C67.9464 137.755 68.3348 138.029 68.7088 138.302C68.7951 138.36 68.8095 138.475 68.7519 138.547C68.7088 138.59 68.6656 138.619 68.6081 138.619ZM66.2634 136.978C66.2347 136.978 66.1915 136.964 66.1627 136.95C65.7744 136.691 65.386 136.417 64.9832 136.158C64.8969 136.101 64.8825 135.985 64.9401 135.914C64.9976 135.842 65.1127 135.813 65.1846 135.856C65.5874 136.129 65.9901 136.388 66.3785 136.662C66.4648 136.719 66.4792 136.834 66.4216 136.906C66.3785 136.95 66.321 136.978 66.2634 136.978ZM63.8756 135.395C63.8468 135.395 63.8037 135.381 63.7749 135.367C63.3865 135.108 62.9838 134.849 62.581 134.59C62.4947 134.532 62.4659 134.417 62.5235 134.345C62.581 134.259 62.6817 134.244 62.768 134.287C63.1708 134.546 63.5735 134.806 63.9763 135.065C64.0626 135.122 64.077 135.237 64.0338 135.309C63.9907 135.367 63.9331 135.395 63.8756 135.395ZM61.4734 133.841C61.4446 133.841 61.4015 133.827 61.3727 133.813L60.1644 133.05C60.0781 132.992 60.0494 132.892 60.1069 132.805C60.1644 132.719 60.2651 132.69 60.3514 132.748L61.5597 133.51C61.646 133.568 61.6748 133.669 61.6173 133.755C61.5885 133.813 61.5309 133.841 61.4734 133.841ZM59.0424 132.33C59.0137 132.33 58.9705 132.316 58.9417 132.302C58.539 132.057 58.1362 131.798 57.7191 131.553C57.6328 131.496 57.604 131.395 57.6615 131.309C57.7191 131.222 57.8198 131.194 57.9061 131.251C58.3232 131.496 58.726 131.755 59.1287 131.999C59.2151 132.057 59.2438 132.158 59.1863 132.244C59.1719 132.302 59.1144 132.33 59.0424 132.33ZM56.6115 130.848C56.5827 130.848 56.5539 130.834 56.5252 130.82L55.3025 130.086C55.2162 130.028 55.1874 129.927 55.2449 129.841C55.3025 129.755 55.4032 129.726 55.4895 129.783L56.7122 130.517C56.7985 130.575 56.8272 130.676 56.7697 130.762C56.7265 130.805 56.669 130.848 56.6115 130.848ZM54.1517 129.366C54.123 129.366 54.0942 129.352 54.0654 129.337C53.6627 129.093 53.2455 128.848 52.8428 128.603C52.7564 128.546 52.7277 128.445 52.7852 128.359C52.8284 128.273 52.9434 128.244 53.0297 128.301C53.4469 128.546 53.8497 128.791 54.2524 129.035C54.3387 129.093 54.3675 129.193 54.31 129.28C54.2812 129.337 54.2237 129.366 54.1517 129.366ZM51.692 127.913C51.6632 127.913 51.6345 127.898 51.6057 127.884C51.2029 127.639 50.7858 127.409 50.3686 127.164C50.2823 127.107 50.2536 127.006 50.3111 126.92C50.3542 126.834 50.4693 126.805 50.5556 126.848C50.9728 127.093 51.3755 127.323 51.7927 127.567C51.879 127.625 51.9078 127.726 51.8502 127.812C51.8215 127.884 51.7495 127.913 51.692 127.913ZM49.2323 126.474C49.2035 126.474 49.1747 126.459 49.146 126.445C48.7288 126.2 48.326 125.97 47.9089 125.726C47.8226 125.682 47.7938 125.567 47.837 125.481C47.8801 125.395 47.9952 125.366 48.0815 125.409C48.4986 125.654 48.9014 125.884 49.3186 126.128C49.4049 126.186 49.4336 126.287 49.3905 126.373C49.3473 126.445 49.2898 126.474 49.2323 126.474ZM46.7437 125.049C46.715 125.049 46.6862 125.035 46.6574 125.02C46.2403 124.776 45.8375 124.546 45.4204 124.315C45.3341 124.272 45.3053 124.157 45.3485 124.071C45.3916 123.984 45.5067 123.956 45.593 123.999C46.0101 124.229 46.4273 124.474 46.8301 124.704C46.9164 124.747 46.9451 124.862 46.902 124.948C46.8732 125.02 46.8013 125.049 46.7437 125.049ZM44.2696 123.639C44.2409 123.639 44.2121 123.639 44.1833 123.61C43.7662 123.38 43.349 123.135 42.9463 122.905C42.86 122.862 42.8312 122.747 42.8743 122.66C42.9175 122.574 43.0326 122.545 43.1189 122.589C43.536 122.819 43.9532 123.063 44.3559 123.294C44.4422 123.337 44.471 123.452 44.4279 123.538C44.3847 123.596 44.3272 123.639 44.2696 123.639ZM41.7811 122.229C41.7524 122.229 41.7236 122.229 41.6948 122.2L40.4434 121.495C40.3571 121.452 40.3283 121.337 40.3714 121.25C40.4146 121.164 40.5297 121.135 40.616 121.178L41.8674 121.883C41.9537 121.927 41.9825 122.042 41.9394 122.128C41.8962 122.2 41.8387 122.229 41.7811 122.229ZM39.2782 120.833C39.2495 120.833 39.2207 120.833 39.1919 120.804L37.9405 120.113C37.8542 120.07 37.8254 119.955 37.8686 119.869C37.9117 119.782 38.0268 119.754 38.1131 119.797L39.3645 120.488C39.4508 120.531 39.4796 120.646 39.4365 120.732C39.4077 120.79 39.3358 120.833 39.2782 120.833ZM36.7753 119.437C36.7466 119.437 36.7178 119.437 36.689 119.408C36.2719 119.178 35.8547 118.948 35.4376 118.718C35.3513 118.674 35.3225 118.559 35.3657 118.473C35.4088 118.387 35.5239 118.358 35.6102 118.401C36.0274 118.631 36.4445 118.862 36.8616 119.092C36.948 119.135 36.9767 119.25 36.9336 119.336C36.9048 119.408 36.8473 119.437 36.7753 119.437ZM34.2724 118.056C34.2437 118.056 34.2149 118.056 34.1861 118.027L32.9347 117.336C32.8484 117.293 32.8196 117.178 32.8628 117.092C32.9059 117.005 33.021 116.976 33.1073 117.02L34.3588 117.71C34.4451 117.754 34.4738 117.869 34.4307 117.955C34.4019 118.027 34.3444 118.056 34.2724 118.056ZM31.7696 116.689C31.7408 116.689 31.712 116.689 31.6833 116.66C31.2517 116.43 30.8346 116.199 30.4318 115.969C30.3455 115.926 30.3167 115.811 30.3599 115.725C30.403 115.638 30.5181 115.609 30.6044 115.653C31.0216 115.883 31.4387 116.099 31.8559 116.343C31.9422 116.386 31.9709 116.502 31.9278 116.588C31.899 116.66 31.8271 116.689 31.7696 116.689ZM29.2523 115.322C29.2235 115.322 29.1947 115.322 29.166 115.307L27.9145 114.631C27.8282 114.588 27.7995 114.473 27.8426 114.386C27.8858 114.3 28.0008 114.271 28.0871 114.314L29.3386 114.991C29.4249 115.034 29.4537 115.149 29.4105 115.235C29.3817 115.293 29.3242 115.322 29.2523 115.322ZM26.735 113.955C26.7062 113.955 26.6775 113.955 26.6487 113.94C26.2172 113.71 25.8 113.48 25.3829 113.264C25.2966 113.221 25.2678 113.106 25.3109 113.019C25.3541 112.933 25.4692 112.904 25.5555 112.947C25.9582 113.163 26.3898 113.393 26.8213 113.624C26.9076 113.667 26.9364 113.782 26.8932 113.868C26.8645 113.926 26.8069 113.955 26.735 113.955ZM24.2177 112.602C24.189 112.602 24.1602 112.602 24.1314 112.588C23.6855 112.343 23.2684 112.127 22.8656 111.911C22.7793 111.868 22.7505 111.753 22.7937 111.667C22.8368 111.58 22.9519 111.551 23.0382 111.595C23.441 111.811 23.8581 112.026 24.304 112.271C24.3903 112.314 24.4191 112.429 24.376 112.516C24.3472 112.573 24.2753 112.602 24.2177 112.602ZM21.6861 111.264C21.6573 111.264 21.6285 111.264 21.5998 111.249L20.3339 110.573C20.2476 110.53 20.2189 110.415 20.262 110.328C20.3052 110.242 20.4202 110.213 20.5065 110.256L21.7724 110.933C21.8587 110.976 21.8875 111.091 21.8443 111.177C21.8155 111.221 21.758 111.264 21.6861 111.264Z" fill="#A9A9A9"/>
<path d="M74.247 143.885C74.175 143.885 74.1031 143.842 74.0744 143.77C74.0168 143.598 73.9017 143.396 73.7435 143.18C73.686 143.094 73.7004 142.993 73.7867 142.936C73.873 142.878 73.9737 142.892 74.0312 142.979C74.2038 143.223 74.3189 143.439 74.3908 143.641C74.4196 143.727 74.3764 143.842 74.2901 143.871C74.2901 143.885 74.2757 143.885 74.247 143.885Z" fill="#A9A9A9"/>
<path d="M311.878 109.925C311.82 109.925 311.748 109.897 311.72 109.825C311.676 109.738 311.705 109.623 311.791 109.58L312.424 109.249C312.511 109.206 312.626 109.235 312.669 109.321C312.712 109.407 312.683 109.522 312.597 109.566L311.964 109.897C311.935 109.911 311.907 109.925 311.878 109.925Z" fill="#A9A9A9"/>
<path d="M258.022 142.245C257.979 142.245 257.936 142.231 257.893 142.187C257.821 142.116 257.821 142 257.893 141.928C258.195 141.626 258.54 141.295 258.943 140.936C259.015 140.864 259.13 140.878 259.202 140.95C259.274 141.022 259.259 141.137 259.187 141.209C258.785 141.569 258.439 141.885 258.152 142.173C258.109 142.216 258.065 142.245 258.022 142.245ZM260.166 140.346C260.108 140.346 260.065 140.317 260.022 140.274C259.964 140.202 259.979 140.087 260.05 140.015C260.41 139.727 260.784 139.439 261.187 139.137C261.273 139.079 261.374 139.094 261.431 139.166C261.489 139.238 261.475 139.353 261.403 139.41C261 139.712 260.626 140 260.281 140.288C260.237 140.331 260.194 140.346 260.166 140.346ZM262.438 138.619C262.381 138.619 262.323 138.59 262.294 138.547C262.237 138.461 262.251 138.36 262.338 138.302C262.712 138.029 263.1 137.755 263.503 137.468C263.575 137.41 263.69 137.424 263.747 137.511C263.805 137.597 263.79 137.698 263.704 137.755C263.301 138.029 262.913 138.317 262.539 138.576C262.51 138.604 262.481 138.619 262.438 138.619ZM264.783 136.978C264.725 136.978 264.668 136.95 264.639 136.906C264.582 136.82 264.61 136.719 264.682 136.662C265.071 136.403 265.459 136.129 265.876 135.856C265.962 135.798 266.063 135.827 266.121 135.913C266.178 136 266.149 136.101 266.063 136.158C265.66 136.432 265.258 136.691 264.884 136.95C264.855 136.964 264.826 136.978 264.783 136.978ZM267.171 135.395C267.113 135.395 267.056 135.367 267.027 135.309C266.969 135.223 266.998 135.122 267.084 135.064C267.473 134.805 267.876 134.546 268.293 134.287C268.379 134.244 268.48 134.259 268.537 134.345C268.595 134.431 268.566 134.546 268.48 134.59C268.077 134.849 267.674 135.108 267.286 135.367C267.228 135.381 267.2 135.395 267.171 135.395ZM269.573 133.841C269.515 133.841 269.458 133.813 269.415 133.755C269.357 133.669 269.386 133.554 269.472 133.51L270.681 132.748C270.767 132.69 270.882 132.719 270.925 132.805C270.983 132.892 270.954 133.007 270.868 133.05L269.659 133.813C269.645 133.841 269.602 133.841 269.573 133.841ZM271.99 132.33C271.932 132.33 271.874 132.302 271.831 132.244C271.774 132.158 271.803 132.043 271.889 131.999C272.292 131.755 272.694 131.496 273.112 131.251C273.198 131.194 273.313 131.222 273.356 131.309C273.414 131.395 273.385 131.51 273.299 131.553C272.881 131.798 272.479 132.057 272.076 132.302C272.061 132.33 272.033 132.33 271.99 132.33ZM274.435 130.848C274.377 130.848 274.32 130.819 274.277 130.762C274.219 130.676 274.248 130.56 274.334 130.517L275.557 129.783C275.643 129.74 275.758 129.755 275.801 129.841C275.859 129.927 275.83 130.042 275.744 130.086L274.521 130.819C274.507 130.834 274.464 130.848 274.435 130.848ZM276.88 129.366C276.823 129.366 276.765 129.337 276.722 129.28C276.664 129.193 276.693 129.078 276.78 129.035L278.017 128.301C278.103 128.244 278.204 128.272 278.261 128.359C278.319 128.445 278.29 128.56 278.204 128.603L276.967 129.337C276.952 129.366 276.923 129.366 276.88 129.366ZM279.354 127.913C279.297 127.913 279.239 127.884 279.196 127.826C279.139 127.74 279.167 127.625 279.254 127.582C279.656 127.337 280.074 127.107 280.491 126.862C280.577 126.819 280.692 126.848 280.735 126.934C280.778 127.021 280.75 127.136 280.663 127.179C280.246 127.423 279.843 127.654 279.426 127.898C279.412 127.913 279.383 127.913 279.354 127.913ZM281.814 126.474C281.757 126.474 281.699 126.445 281.656 126.387C281.613 126.301 281.642 126.186 281.728 126.143C282.145 125.898 282.548 125.668 282.965 125.423C283.051 125.366 283.166 125.409 283.209 125.495C283.253 125.582 283.224 125.697 283.137 125.74C282.72 125.984 282.318 126.215 281.9 126.459C281.886 126.474 281.857 126.474 281.814 126.474ZM284.303 125.049C284.245 125.049 284.188 125.02 284.144 124.963C284.101 124.876 284.13 124.761 284.216 124.718L285.453 124.013C285.54 123.956 285.655 123.999 285.698 124.085C285.741 124.171 285.712 124.287 285.626 124.33L284.389 125.035C284.36 125.035 284.331 125.049 284.303 125.049ZM286.777 123.639C286.719 123.639 286.647 123.61 286.619 123.553C286.575 123.466 286.604 123.351 286.69 123.308C287.108 123.078 287.525 122.833 287.942 122.603C288.028 122.56 288.143 122.588 288.186 122.675C288.23 122.761 288.201 122.876 288.114 122.919C287.697 123.15 287.28 123.38 286.863 123.625C286.834 123.625 286.806 123.639 286.777 123.639ZM289.265 122.229C289.208 122.229 289.136 122.2 289.107 122.142C289.064 122.056 289.093 121.941 289.179 121.898L290.43 121.193C290.517 121.15 290.632 121.178 290.675 121.265C290.718 121.351 290.689 121.466 290.603 121.509L289.352 122.214C289.337 122.214 289.294 122.229 289.265 122.229ZM291.768 120.833C291.711 120.833 291.639 120.804 291.61 120.747C291.567 120.66 291.596 120.545 291.682 120.502L292.933 119.811C293.02 119.768 293.135 119.797 293.178 119.883C293.221 119.97 293.192 120.085 293.106 120.128L291.854 120.819C291.826 120.819 291.797 120.833 291.768 120.833ZM294.271 119.437C294.213 119.437 294.142 119.408 294.113 119.351C294.07 119.264 294.098 119.149 294.185 119.106L295.436 118.415C295.522 118.372 295.638 118.401 295.681 118.487C295.724 118.574 295.695 118.689 295.609 118.732L294.357 119.423C294.329 119.437 294.3 119.437 294.271 119.437ZM296.774 118.056C296.716 118.056 296.644 118.027 296.616 117.969C296.573 117.883 296.601 117.768 296.688 117.725L297.939 117.034C298.025 116.991 298.14 117.02 298.184 117.106C298.227 117.192 298.198 117.307 298.112 117.351L296.86 118.041C296.831 118.056 296.803 118.056 296.774 118.056ZM299.277 116.689C299.219 116.689 299.147 116.66 299.119 116.588C299.075 116.502 299.104 116.386 299.191 116.343L300.442 115.653C300.528 115.609 300.643 115.638 300.686 115.725C300.73 115.811 300.701 115.926 300.615 115.969L299.363 116.66C299.334 116.674 299.306 116.689 299.277 116.689ZM301.794 115.322C301.737 115.322 301.665 115.293 301.636 115.221C301.593 115.135 301.621 115.019 301.708 114.976L302.974 114.3C303.06 114.257 303.175 114.286 303.218 114.372C303.261 114.458 303.233 114.573 303.146 114.617L301.88 115.293C301.852 115.307 301.823 115.322 301.794 115.322ZM304.311 113.955C304.254 113.955 304.182 113.926 304.153 113.854C304.11 113.768 304.139 113.652 304.225 113.609C304.657 113.379 305.074 113.149 305.491 112.933C305.577 112.89 305.692 112.919 305.735 113.005C305.779 113.091 305.75 113.206 305.664 113.249C305.261 113.465 304.844 113.696 304.398 113.926C304.369 113.955 304.34 113.955 304.311 113.955ZM306.829 112.602C306.771 112.602 306.699 112.573 306.67 112.501C306.627 112.415 306.656 112.3 306.742 112.257L308.008 111.58C308.094 111.537 308.21 111.566 308.253 111.652C308.296 111.739 308.267 111.854 308.181 111.897L306.915 112.573C306.886 112.602 306.857 112.602 306.829 112.602ZM309.36 111.264C309.303 111.264 309.231 111.235 309.202 111.163C309.159 111.077 309.188 110.961 309.274 110.918C309.749 110.674 310.166 110.443 310.54 110.242C310.626 110.199 310.741 110.228 310.784 110.314C310.828 110.4 310.799 110.515 310.712 110.559C310.338 110.76 309.921 110.976 309.447 111.235C309.418 111.249 309.389 111.264 309.36 111.264Z" fill="#A9A9A9"/>
<path d="M256.8 143.885C256.785 143.885 256.756 143.885 256.742 143.871C256.656 143.842 256.598 143.727 256.641 143.641C256.713 143.439 256.843 143.223 257.001 142.979C257.059 142.892 257.174 142.878 257.246 142.936C257.332 142.993 257.346 143.108 257.289 143.18C257.145 143.396 257.03 143.598 256.958 143.77C256.943 143.842 256.872 143.885 256.8 143.885Z" fill="#A9A9A9"/>
<path d="M169.242 43.9623H162.769C157.346 43.9623 146.989 42.4945 138.632 32.6519C128.577 20.8234 128.879 4.36143 128.893 3.67072C128.879 3.6995 128.879 3.62755 128.879 3.54121C128.879 2.74977 129.526 2.10222 130.317 2.10222C131.108 2.10222 131.756 2.74977 131.756 3.54121C131.77 3.5556 131.77 3.65633 131.77 3.75706C131.77 3.90095 131.482 19.8017 140.818 30.7812C148.442 39.7461 157.835 41.0843 162.769 41.0843H169.242C174.175 41.0843 183.569 39.7461 191.192 30.7812C200.542 19.7873 200.24 3.90095 200.24 3.74267C200.24 3.68511 200.24 3.51243 200.254 3.44048C200.254 2.64904 200.902 2.03027 201.693 2.03027C202.484 2.03027 203.131 2.7066 203.131 3.49804C203.131 3.5556 203.117 3.6995 203.117 3.74267C203.131 4.34704 203.433 20.809 193.379 32.6375C185.021 42.4801 174.665 43.9623 169.242 43.9623Z" fill="#A9A9A9"/>
<line x1="203" y1="3" x2="203" y2="304" stroke="#3B3A38" stroke-width="2"/>
<path d="M197 9L203 2L209 9" stroke="#3B3A38" stroke-width="2"/>
<path d="M209 298L203 305L197 298" stroke="#3B3A38" stroke-width="2"/>
<line x1="251" y1="153" x2="81" y2="153" stroke="#3B3A38" stroke-width="2"/>
<path d="M245 147.5L252 153.5L245 159.5" stroke="#3B3A38" stroke-width="2"/>
<path d="M87 159.5L80 153.5L87 147.5" stroke="#3B3A38" stroke-width="2"/>
<line x1="57.8514" y1="30.5245" x2="7.64312" y2="112.018" stroke="#3B3A38" stroke-width="2"/>
<path d="M49 32.9807L57.7638 30.1178L59.2526 39.2164" stroke="#3B3A38" stroke-width="2"/>
<path d="M15.8901 110.004L7.12636 112.867L5.6375 103.769" stroke="#3B3A38" stroke-width="2"/>
<path d="M167.329 248.643C168.104 248.643 168.724 248.845 169.188 249.251C169.658 249.657 169.893 250.247 169.893 251.021V255H168.901L168.771 254.104C168.576 254.442 168.293 254.704 167.924 254.891C167.559 255.077 167.133 255.171 166.646 255.171C166.003 255.171 165.495 255.005 165.121 254.672C164.747 254.339 164.561 253.897 164.561 253.346C164.561 252.776 164.761 252.318 165.162 251.972C165.563 251.621 166.124 251.418 166.844 251.363L168.758 251.192V251.008C168.758 250.502 168.623 250.135 168.354 249.907C168.086 249.679 167.726 249.565 167.274 249.565C166.819 249.565 166.452 249.673 166.174 249.887C165.9 250.096 165.768 250.393 165.777 250.775H164.745C164.745 250.133 164.984 249.618 165.463 249.23C165.941 248.839 166.563 248.643 167.329 248.643ZM166.967 254.289C167.518 254.289 167.953 254.107 168.272 253.742C168.596 253.378 168.758 252.897 168.758 252.3V252.006L167.097 252.129C166.65 252.165 166.311 252.284 166.078 252.484C165.85 252.685 165.736 252.945 165.736 253.264C165.736 253.601 165.848 253.856 166.071 254.029C166.295 254.202 166.593 254.289 166.967 254.289ZM171.581 245.396H172.743V255H171.581V245.396ZM184.234 248.827V255H183.284L183.154 254.159C182.949 254.496 182.674 254.749 182.327 254.918C181.985 255.087 181.6 255.171 181.172 255.171C180.452 255.171 179.894 254.957 179.497 254.528C179.101 254.095 178.902 253.514 178.902 252.785V249.791H176.407V255H175.245V249.791H174.042V248.827H175.245V247.187H176.407V248.827H180.064V252.566C180.064 253.136 180.192 253.542 180.447 253.783C180.702 254.025 181.065 254.146 181.534 254.146C181.999 254.146 182.37 253.986 182.648 253.667C182.931 253.343 183.072 252.915 183.072 252.382V248.827H184.234ZM188.89 248.772C189.095 248.772 189.291 248.791 189.478 248.827V249.818C189.373 249.8 189.227 249.791 189.04 249.791C188.479 249.791 188.047 249.957 187.741 250.29C187.44 250.623 187.29 251.083 187.29 251.671V255H186.128V248.827H187.153L187.29 249.764C187.395 249.445 187.591 249.201 187.878 249.032C188.17 248.859 188.507 248.772 188.89 248.772ZM192.964 248.643C193.739 248.643 194.358 248.845 194.823 249.251C195.293 249.657 195.527 250.247 195.527 251.021V255H194.536L194.406 254.104C194.21 254.442 193.928 254.704 193.559 254.891C193.194 255.077 192.768 255.171 192.28 255.171C191.638 255.171 191.13 255.005 190.756 254.672C190.382 254.339 190.195 253.897 190.195 253.346C190.195 252.776 190.396 252.318 190.797 251.972C191.198 251.621 191.758 251.418 192.479 251.363L194.393 251.192V251.008C194.393 250.502 194.258 250.135 193.989 249.907C193.72 249.679 193.36 249.565 192.909 249.565C192.453 249.565 192.087 249.673 191.809 249.887C191.535 250.096 191.403 250.393 191.412 250.775H190.38C190.38 250.133 190.619 249.618 191.098 249.23C191.576 248.839 192.198 248.643 192.964 248.643ZM192.602 254.289C193.153 254.289 193.588 254.107 193.907 253.742C194.231 253.378 194.393 252.897 194.393 252.3V252.006L192.731 252.129C192.285 252.165 191.945 252.284 191.713 252.484C191.485 252.685 191.371 252.945 191.371 253.264C191.371 253.601 191.483 253.856 191.706 254.029C191.929 254.202 192.228 254.289 192.602 254.289Z" fill="#3B3A38"/>
<path d="M99.9775 135.396H101.14V145H99.9775V135.396ZM105.446 138.643C106.221 138.643 106.841 138.845 107.306 139.251C107.775 139.657 108.01 140.247 108.01 141.021V145H107.019L106.889 144.104C106.693 144.442 106.41 144.704 106.041 144.891C105.676 145.077 105.25 145.171 104.763 145.171C104.12 145.171 103.612 145.005 103.238 144.672C102.865 144.339 102.678 143.897 102.678 143.346C102.678 142.776 102.878 142.318 103.279 141.972C103.68 141.621 104.241 141.418 104.961 141.363L106.875 141.192V141.008C106.875 140.502 106.741 140.135 106.472 139.907C106.203 139.679 105.843 139.565 105.392 139.565C104.936 139.565 104.569 139.673 104.291 139.887C104.018 140.096 103.885 140.393 103.895 140.775H102.862C102.862 140.133 103.102 139.618 103.58 139.23C104.059 138.839 104.681 138.643 105.446 138.643ZM105.084 144.289C105.635 144.289 106.071 144.107 106.39 143.742C106.713 143.378 106.875 142.897 106.875 142.3V142.006L105.214 142.129C104.767 142.165 104.428 142.284 104.195 142.484C103.967 142.685 103.854 142.945 103.854 143.264C103.854 143.601 103.965 143.856 104.188 144.029C104.412 144.202 104.71 144.289 105.084 144.289ZM112.46 138.772C112.665 138.772 112.861 138.791 113.048 138.827V139.818C112.943 139.8 112.797 139.791 112.61 139.791C112.05 139.791 111.617 139.957 111.312 140.29C111.011 140.623 110.86 141.083 110.86 141.671V145H109.698V138.827H110.724L110.86 139.764C110.965 139.445 111.161 139.201 111.448 139.032C111.74 138.859 112.077 138.772 112.46 138.772ZM119.378 139.483H118.188C118.544 139.894 118.722 140.393 118.722 140.98C118.722 141.345 118.646 141.685 118.496 141.999C118.346 142.309 118.127 142.571 117.84 142.785L117.854 142.799L116.199 144.077C116.45 144.032 116.68 144.009 116.89 144.009C117.601 144.009 118.152 144.18 118.544 144.521C118.94 144.859 119.139 145.303 119.139 145.854C119.139 146.265 119.018 146.627 118.776 146.941C118.535 147.26 118.195 147.507 117.758 147.68C117.325 147.853 116.835 147.939 116.288 147.939C115.431 147.939 114.745 147.748 114.23 147.365C113.715 146.982 113.458 146.488 113.458 145.882H114.538C114.556 146.219 114.718 146.49 115.023 146.695C115.333 146.9 115.739 147.003 116.24 147.003C116.755 147.003 117.168 146.898 117.478 146.688C117.792 146.479 117.949 146.201 117.949 145.854C117.949 145.517 117.822 145.262 117.566 145.089C117.311 144.916 116.935 144.829 116.438 144.829C116.101 144.829 115.785 144.863 115.488 144.932C115.197 144.995 114.962 145.08 114.784 145.185L114.367 144.521L115.994 143.305C115.488 143.286 115.053 143.168 114.688 142.949C114.324 142.73 114.048 142.448 113.861 142.102C113.674 141.755 113.581 141.382 113.581 140.98C113.581 140.561 113.681 140.172 113.882 139.812C114.082 139.451 114.376 139.167 114.764 138.957C115.151 138.747 115.611 138.643 116.145 138.643C116.582 138.643 116.969 138.713 117.307 138.854L119.378 138.506V139.483ZM114.729 140.98C114.729 141.363 114.857 141.691 115.112 141.965C115.372 142.234 115.716 142.368 116.145 142.368C116.573 142.368 116.917 142.234 117.177 141.965C117.441 141.691 117.573 141.363 117.573 140.98C117.573 140.589 117.443 140.26 117.184 139.996C116.928 139.727 116.582 139.593 116.145 139.593C115.716 139.593 115.372 139.727 115.112 139.996C114.857 140.26 114.729 140.589 114.729 140.98ZM125.749 138.827V145H124.799L124.689 144.104C124.493 144.46 124.222 144.727 123.876 144.904C123.53 145.082 123.133 145.171 122.687 145.171C121.966 145.171 121.408 144.957 121.012 144.528C120.615 144.095 120.417 143.514 120.417 142.785V138.827H121.579V142.566C121.579 143.136 121.707 143.542 121.962 143.783C122.222 144.025 122.584 144.146 123.049 144.146C123.514 144.146 123.885 143.986 124.163 143.667C124.446 143.343 124.587 142.915 124.587 142.382V138.827H125.749ZM130.397 138.772C130.603 138.772 130.799 138.791 130.985 138.827V139.818C130.881 139.8 130.735 139.791 130.548 139.791C129.987 139.791 129.554 139.957 129.249 140.29C128.948 140.623 128.798 141.083 128.798 141.671V145H127.636V138.827H128.661L128.798 139.764C128.903 139.445 129.099 139.201 129.386 139.032C129.677 138.859 130.015 138.772 130.397 138.772ZM134.472 138.643C135.246 138.643 135.866 138.845 136.331 139.251C136.8 139.657 137.035 140.247 137.035 141.021V145H136.044L135.914 144.104C135.718 144.442 135.436 144.704 135.066 144.891C134.702 145.077 134.276 145.171 133.788 145.171C133.146 145.171 132.637 145.005 132.264 144.672C131.89 144.339 131.703 143.897 131.703 143.346C131.703 142.776 131.904 142.318 132.305 141.972C132.706 141.621 133.266 141.418 133.986 141.363L135.9 141.192V141.008C135.9 140.502 135.766 140.135 135.497 139.907C135.228 139.679 134.868 139.565 134.417 139.565C133.961 139.565 133.594 139.673 133.316 139.887C133.043 140.096 132.911 140.393 132.92 140.775H131.888C131.888 140.133 132.127 139.618 132.605 139.23C133.084 138.839 133.706 138.643 134.472 138.643ZM134.109 144.289C134.661 144.289 135.096 144.107 135.415 143.742C135.739 143.378 135.9 142.897 135.9 142.3V142.006L134.239 142.129C133.793 142.165 133.453 142.284 133.221 142.484C132.993 142.685 132.879 142.945 132.879 143.264C132.879 143.601 132.991 143.856 133.214 144.029C133.437 144.202 133.736 144.289 134.109 144.289Z" fill="#3B3A38"/>
<path d="M15.4613 75.2086C15.7871 74.6442 16.2231 74.2855 16.7693 74.1325C17.3177 73.9755 17.9077 74.0793 18.5392 74.4439L22.0794 76.4879L21.5052 77.4824L18.184 75.565C17.738 75.3075 17.3461 75.2206 17.0082 75.3045C16.6727 75.3844 16.4001 75.6059 16.1905 75.969C15.9626 76.3637 15.9156 76.7549 16.0496 77.1427C16.1818 77.5243 16.4374 77.8245 16.8163 78.0432L20.0901 79.9334L19.5159 80.9279L16.1947 79.0104C15.7843 78.7735 15.4022 78.6923 15.0486 78.7671C14.691 78.8395 14.404 79.0632 14.1875 79.4382C13.9688 79.8171 13.9264 80.2004 14.0603 80.5882C14.1926 80.9698 14.4442 81.2677 14.8152 81.4819L18.1009 83.3788L17.5198 84.3853L12.1621 81.292L12.6816 80.3922L13.4035 80.7142C13.2319 80.4099 13.1508 80.0763 13.1603 79.7134C13.1721 79.3466 13.2738 78.9974 13.4652 78.6659C13.6976 78.2634 14.0013 77.9651 14.3764 77.7712C14.7475 77.575 15.1345 77.5064 15.5372 77.5652C15.2821 77.2232 15.1487 76.8436 15.137 76.4264C15.1253 76.0092 15.2334 75.6033 15.4613 75.2086ZM18.681 69.6319C19.0684 68.9609 19.5539 68.5256 20.1376 68.3258C20.7235 68.1221 21.352 68.2139 22.0229 68.6013L25.4684 70.5905L24.9728 71.4489L24.1323 71.1137C24.3264 71.452 24.4121 71.8277 24.3893 72.2408C24.3688 72.65 24.2367 73.0657 23.9929 73.488C23.6716 74.0445 23.2735 74.4014 22.7985 74.5587C22.3235 74.716 21.8473 74.6568 21.3697 74.3811C20.8764 74.0962 20.58 73.6936 20.4806 73.1731C20.3772 72.6503 20.4818 72.0635 20.7945 71.4125L21.6035 69.6695L21.4437 69.5772C21.0056 69.3242 20.6207 69.2572 20.2889 69.3762C19.9571 69.4951 19.6784 69.7499 19.4529 70.1406C19.225 70.5353 19.1343 70.9066 19.1808 71.2544C19.2256 71.596 19.4161 71.8586 19.7522 72.0421L19.2361 72.9361C18.6796 72.6148 18.3532 72.1501 18.257 71.542C18.1568 70.9316 18.2982 70.2949 18.681 69.6319ZM23.3898 72.7689C23.6655 72.2913 23.7253 71.8232 23.5691 71.3647C23.4151 70.9022 23.0796 70.5217 22.5626 70.2232L22.308 70.0762L21.584 71.5763C21.3923 71.9813 21.3251 72.3346 21.3826 72.6361C21.4423 72.9337 21.6103 73.1623 21.8866 73.3218C22.1786 73.4904 22.4555 73.5213 22.7171 73.4145C22.9787 73.3077 23.203 73.0925 23.3898 72.7689ZM22.3621 63.2559C22.713 62.6481 23.1867 62.2743 23.7831 62.1345C24.3756 61.9925 25.0191 62.1219 25.7138 62.523L29.0231 64.4336L28.4352 65.4519L25.3568 63.6745C24.3464 63.0912 23.6054 63.208 23.1337 64.025C22.8762 64.471 22.8065 64.9017 22.9244 65.3171C23.0408 65.7263 23.3081 66.0517 23.7265 66.2932L26.8819 68.115L26.3008 69.1214L20.9668 66.0418L21.4522 65.2012L22.2587 65.5405C22.0758 65.2192 21.9938 64.8509 22.0126 64.4355C22.0314 64.0201 22.1479 63.6269 22.3621 63.2559ZM27.7832 55.548L27.1884 56.5781C27.7214 56.4754 28.2424 56.5709 28.7516 56.8649C29.0673 57.0472 29.3237 57.2821 29.5209 57.5695C29.714 57.8547 29.8316 58.1752 29.8735 58.5309L29.8922 58.5259L30.1721 60.5977C30.258 60.3579 30.3533 60.1472 30.4581 59.9656C30.8136 59.3499 31.2373 58.9578 31.7293 58.7893C32.2196 58.6146 32.7035 58.6651 33.1811 58.9408C33.5363 59.1459 33.7897 59.4316 33.9412 59.798C34.0967 60.1667 34.1401 60.5838 34.0713 61.0492C34.0048 61.5108 33.8349 61.9783 33.5614 62.4519C33.133 63.1939 32.6243 63.6922 32.0353 63.9468C31.4463 64.2014 30.8893 64.1771 30.3644 63.874L30.9045 62.9387C31.2056 63.0915 31.5214 63.087 31.8516 62.9251C32.1842 62.7592 32.4758 62.4593 32.7264 62.0251C32.9839 61.5791 33.0994 61.1695 33.0728 60.7964C33.0484 60.4192 32.8863 60.1441 32.5863 59.9709C32.2943 59.8023 32.0095 59.7852 31.7319 59.9196C31.4543 60.054 31.1913 60.3363 30.943 60.7665C30.7743 61.0586 30.6456 61.35 30.5567 61.6407C30.4661 61.9252 30.4218 62.1706 30.4237 62.3769L29.6409 62.4065L29.4006 60.3891C29.1319 60.8181 28.8117 61.1358 28.4399 61.3421C28.0682 61.5485 27.6856 61.646 27.2923 61.6346C26.8989 61.6233 26.5286 61.5173 26.1812 61.3168C25.8181 61.1072 25.5308 60.8255 25.3193 60.4718C25.1078 60.1182 25.0081 59.7212 25.0202 59.2809C25.0323 58.8406 25.1717 58.3896 25.4383 57.9278C25.6571 57.5489 25.9119 57.2488 26.2029 57.0274L26.9366 55.0593L27.7832 55.548ZM26.7555 60.3222C27.087 60.5136 27.435 60.5672 27.7994 60.4829C28.1621 60.3924 28.4506 60.1616 28.6648 59.7906C28.8789 59.4196 28.9346 59.0544 28.8316 58.695C28.7269 58.3294 28.5089 58.0509 28.1773 57.8595C27.8379 57.6635 27.4888 57.6119 27.13 57.7047C26.7696 57.7913 26.4799 58.024 26.2612 58.4029C26.047 58.7739 25.9914 59.1391 26.0944 59.4985C26.1957 59.8517 26.416 60.1263 26.7555 60.3222ZM28.8187 52.0728C29.206 51.4019 29.6916 50.9665 30.2753 50.7668C30.8612 50.5631 31.4897 50.6549 32.1606 51.0423L35.6061 53.0315L35.1105 53.8899L34.27 53.5547C34.4641 53.893 34.5498 54.2687 34.527 54.6818C34.5065 55.091 34.3744 55.5067 34.1306 55.929C33.8093 56.4855 33.4112 56.8424 32.9362 56.9997C32.4612 57.157 31.985 57.0978 31.5074 56.822C31.0141 56.5372 30.7177 56.1346 30.6183 55.6141C30.5149 55.0913 30.6195 54.5045 30.9322 53.8535L31.7412 52.1105L31.5814 52.0182C31.1433 51.7652 30.7584 51.6982 30.4266 51.8172C30.0948 51.9361 29.8161 52.1909 29.5905 52.5816C29.3627 52.9763 29.272 53.3476 29.3185 53.6954C29.3633 54.037 29.5538 54.2996 29.8899 54.4831L29.3738 55.3771C28.8173 55.0558 28.4909 54.5911 28.3947 53.983C28.2945 53.3726 28.4359 52.7359 28.8187 52.0728ZM33.5275 55.2099C33.8032 54.7323 33.863 54.2642 33.7067 53.8057C33.5528 53.3432 33.2173 52.9627 32.7003 52.6642L32.4457 52.5172L31.7217 54.0173C31.53 54.4223 31.4628 54.7756 31.5203 55.0771C31.58 55.3747 31.748 55.6033 32.0243 55.7628C32.3163 55.9314 32.5932 55.9623 32.8548 55.8555C33.1164 55.7487 33.3407 55.5335 33.5275 55.2099Z" fill="#3B3A38"/>
</svg>
